<svg width="1440" height="900" viewBox="0 0 1440 900" fill="none" xmlns="http://www.w3.org/2000/svg">
<rect width="1440" height="900" fill="#FAFAFA"/>
<line x1="508.862" y1="422.709" x2="445.999" y2="478.224" stroke="#DDDDDD"/>
<circle cx="445.668" cy="477.85" r="4.49023" fill="#DDDDDD"/>
<circle cx="401.174" cy="522.344" r="4.49023" fill="#DDDDDD"/>
<circle cx="392.193" cy="454.582" r="4.49023" fill="#DDDDDD"/>
<circle cx="410.154" cy="363.961" r="4.49023" fill="#DDDDDD"/>
<circle cx="297.49" cy="368.451" r="4.49023" fill="#DDDDDD"/>
<circle cx="301.98" cy="473.359" r="4.49023" fill="#DDDDDD"/>
<circle cx="324.432" cy="546.02" r="4.49023" fill="#DDDDDD"/>
<circle cx="344.434" cy="426.416" r="4.49023" fill="#DDDDDD"/>
<circle cx="344.434" cy="350.49" r="4.49023" fill="#DDDDDD"/>
<circle cx="450.158" cy="402.74" r="4.49023" fill="#DDDDDD"/>
<line x1="445.169" y1="477.82" x2="449.659" y2="402.71" stroke="#DDDDDD"/>
<line x1="445.468" y1="478.308" x2="391.994" y2="455.04" stroke="#DDDDDD"/>
<line x1="410.502" y1="363.602" x2="450.506" y2="402.381" stroke="#DDDDDD"/>
<line x1="344.685" y1="426.392" x2="392.445" y2="454.15" stroke="#DDDDDD"/>
<line x1="343.934" y1="426.824" x2="343.934" y2="350.49" stroke="#DDDDDD"/>
<line x1="344.044" y1="427.138" x2="297.101" y2="368.765" stroke="#DDDDDD"/>
<line x1="344.803" y1="427.161" x2="302.35" y2="473.696" stroke="#DDDDDD"/>
<line x1="446.022" y1="478.203" x2="401.527" y2="522.697" stroke="#DDDDDD"/>
<line x1="324.284" y1="545.542" x2="401.026" y2="521.866" stroke="#DDDDDD"/>
<line x1="915.632" y1="410.224" x2="966.249" y2="355.117" stroke="#DDDDDD"/>
<circle cx="1018.05" cy="324.432" r="4.49023" fill="#DDDDDD"/>
<circle cx="1027.03" cy="401.582" r="4.49023" fill="#DDDDDD"/>
<circle cx="1013.56" cy="452.607" r="4.49023" fill="#DDDDDD"/>
<circle cx="1064.18" cy="363.211" r="4.49023" fill="#DDDDDD"/>
<circle cx="1089.08" cy="444.443" r="4.49023" fill="#DDDDDD"/>
<circle cx="1121.33" cy="490.162" r="4.49023" fill="#DDDDDD"/>
<circle cx="1109.08" cy="315.451" r="4.49023" fill="#DDDDDD"/>
<circle cx="1130.31" cy="386.887" r="4.49023" fill="#DDDDDD"/>
<circle cx="1073.16" cy="297.49" r="4.49023" fill="#DDDDDD"/>
<circle cx="962.127" cy="429.34" r="4.49023" fill="#DDDDDD"/>
<circle cx="966.617" cy="355.455" r="4.49023" fill="#DDDDDD"/>
<line x1="961.628" y1="429.31" x2="966.118" y2="355.425" stroke="#DDDDDD"/>
<line x1="962.333" y1="428.884" x2="1013.77" y2="452.152" stroke="#DDDDDD"/>
<line x1="1018.31" y1="324.86" x2="966.875" y2="355.883" stroke="#DDDDDD"/>
<line x1="1018.31" y1="324.86" x2="966.875" y2="355.883" stroke="#DDDDDD"/>
<line x1="1026.73" y1="401.979" x2="966.314" y2="355.852" stroke="#DDDDDD"/>
<line x1="1026.67" y1="401.234" x2="1063.82" y2="362.863" stroke="#DDDDDD"/>
<line x1="1109.44" y1="315.794" x2="1064.54" y2="363.553" stroke="#DDDDDD"/>
<line x1="1130.14" y1="387.357" x2="1064.01" y2="363.682" stroke="#DDDDDD"/>
<line x1="1130.71" y1="387.178" x2="1089.48" y2="444.735" stroke="#DDDDDD"/>
<line x1="1120.92" y1="490.45" x2="1088.67" y2="444.732" stroke="#DDDDDD"/>
<line x1="1073.65" y1="297.558" x2="1064.67" y2="363.279" stroke="#DDDDDD"/>
<g filter="url(#filter0_d)">
<rect x="508" y="173" width="424" height="517" rx="15" fill="white"/>
</g>
<g filter="url(#filter1_d)">
<rect x="606" y="532" width="228" height="52" rx="10" fill="white"/>
<rect x="606.75" y="532.75" width="226.5" height="50.5" rx="9.25" stroke="#555555" stroke-width="1.5"/>
</g>
<path d="M651.249 558.844C651.249 557.57 651.146 556.64 650.923 555.676H636.433V561.428H644.938C644.767 562.857 643.841 565.01 641.783 566.457L641.754 566.649L646.336 570.214L646.653 570.246C649.568 567.542 651.249 563.563 651.249 558.844Z" fill="#4285F4"/>
<path d="M636.433 574C640.6 574 644.098 572.622 646.653 570.246L641.783 566.457C640.48 567.369 638.731 568.007 636.433 568.007C632.352 568.007 628.888 565.303 627.653 561.566L627.472 561.581L622.709 565.284L622.646 565.458C625.184 570.521 630.397 574 636.433 574Z" fill="#34A853"/>
<path d="M627.653 561.566C627.327 560.601 627.139 559.568 627.139 558.5C627.139 557.432 627.327 556.399 627.636 555.434L627.627 555.229L622.804 551.467L622.646 551.542C621.6 553.643 621 556.003 621 558.5C621 560.997 621.6 563.357 622.646 565.458L627.653 561.566Z" fill="#FBBC05"/>
<path d="M636.433 548.993C639.331 548.993 641.286 550.251 642.4 551.301L646.756 547.03C644.081 544.533 640.6 543 636.433 543C630.397 543 625.184 546.479 622.646 551.542L627.636 555.434C628.888 551.697 632.352 548.993 636.433 548.993Z" fill="#EB4335"/>
<path d="M668.602 558.114C668.602 557.162 668.817 556.308 669.246 555.552C669.675 554.787 670.259 554.189 670.996 553.76C671.743 553.331 672.569 553.116 673.474 553.116C674.538 553.116 675.467 553.373 676.26 553.886C677.053 554.399 677.632 555.127 677.996 556.07H676.47C676.199 555.482 675.807 555.029 675.294 554.712C674.79 554.395 674.183 554.236 673.474 554.236C672.793 554.236 672.181 554.395 671.64 554.712C671.099 555.029 670.674 555.482 670.366 556.07C670.058 556.649 669.904 557.33 669.904 558.114C669.904 558.889 670.058 559.57 670.366 560.158C670.674 560.737 671.099 561.185 671.64 561.502C672.181 561.819 672.793 561.978 673.474 561.978C674.183 561.978 674.79 561.824 675.294 561.516C675.807 561.199 676.199 560.746 676.47 560.158H677.996C677.632 561.091 677.053 561.815 676.26 562.328C675.467 562.832 674.538 563.084 673.474 563.084C672.569 563.084 671.743 562.874 670.996 562.454C670.259 562.025 669.675 561.432 669.246 560.676C668.817 559.92 668.602 559.066 668.602 558.114ZM683.238 563.126C682.52 563.126 681.866 562.963 681.278 562.636C680.7 562.309 680.242 561.847 679.906 561.25C679.58 560.643 679.416 559.943 679.416 559.15C679.416 558.366 679.584 557.675 679.92 557.078C680.266 556.471 680.732 556.009 681.32 555.692C681.908 555.365 682.566 555.202 683.294 555.202C684.022 555.202 684.68 555.365 685.268 555.692C685.856 556.009 686.318 556.467 686.654 557.064C687 557.661 687.172 558.357 687.172 559.15C687.172 559.943 686.995 560.643 686.64 561.25C686.295 561.847 685.824 562.309 685.226 562.636C684.629 562.963 683.966 563.126 683.238 563.126ZM683.238 562.006C683.696 562.006 684.125 561.899 684.526 561.684C684.928 561.469 685.25 561.147 685.492 560.718C685.744 560.289 685.87 559.766 685.87 559.15C685.87 558.534 685.749 558.011 685.506 557.582C685.264 557.153 684.946 556.835 684.554 556.63C684.162 556.415 683.738 556.308 683.28 556.308C682.814 556.308 682.384 556.415 681.992 556.63C681.61 556.835 681.302 557.153 681.068 557.582C680.835 558.011 680.718 558.534 680.718 559.15C680.718 559.775 680.83 560.303 681.054 560.732C681.288 561.161 681.596 561.483 681.978 561.698C682.361 561.903 682.781 562.006 683.238 562.006ZM692.586 555.188C693.519 555.188 694.275 555.473 694.854 556.042C695.432 556.602 695.722 557.414 695.722 558.478V563H694.462V558.66C694.462 557.895 694.27 557.311 693.888 556.91C693.505 556.499 692.982 556.294 692.32 556.294C691.648 556.294 691.111 556.504 690.71 556.924C690.318 557.344 690.122 557.955 690.122 558.758V563H688.848V555.328H690.122V556.42C690.374 556.028 690.714 555.725 691.144 555.51C691.582 555.295 692.063 555.188 692.586 555.188ZM699.357 556.378V560.9C699.357 561.273 699.436 561.539 699.595 561.698C699.753 561.847 700.029 561.922 700.421 561.922H701.359V563H700.211C699.501 563 698.969 562.837 698.615 562.51C698.26 562.183 698.083 561.647 698.083 560.9V556.378H697.089V555.328H698.083V553.396H699.357V555.328H701.359V556.378H699.357ZM703.56 554.082C703.318 554.082 703.112 553.998 702.944 553.83C702.776 553.662 702.692 553.457 702.692 553.214C702.692 552.971 702.776 552.766 702.944 552.598C703.112 552.43 703.318 552.346 703.56 552.346C703.794 552.346 703.99 552.43 704.148 552.598C704.316 552.766 704.4 552.971 704.4 553.214C704.4 553.457 704.316 553.662 704.148 553.83C703.99 553.998 703.794 554.082 703.56 554.082ZM704.176 555.328V563H702.902V555.328H704.176ZM710.086 555.188C711.019 555.188 711.775 555.473 712.354 556.042C712.932 556.602 713.222 557.414 713.222 558.478V563H711.962V558.66C711.962 557.895 711.77 557.311 711.388 556.91C711.005 556.499 710.482 556.294 709.82 556.294C709.148 556.294 708.611 556.504 708.21 556.924C707.818 557.344 707.622 557.955 707.622 558.758V563H706.348V555.328H707.622V556.42C707.874 556.028 708.214 555.725 708.644 555.51C709.082 555.295 709.563 555.188 710.086 555.188ZM722.107 555.328V563H720.833V561.866C720.59 562.258 720.249 562.566 719.811 562.79C719.381 563.005 718.905 563.112 718.383 563.112C717.785 563.112 717.249 562.991 716.773 562.748C716.297 562.496 715.919 562.123 715.639 561.628C715.368 561.133 715.233 560.531 715.233 559.822V555.328H716.493V559.654C716.493 560.41 716.684 560.993 717.067 561.404C717.449 561.805 717.972 562.006 718.635 562.006C719.316 562.006 719.853 561.796 720.245 561.376C720.637 560.956 720.833 560.345 720.833 559.542V555.328H722.107ZM731.258 558.87C731.258 559.113 731.244 559.369 731.216 559.64H725.084C725.13 560.396 725.387 560.989 725.854 561.418C726.33 561.838 726.904 562.048 727.576 562.048C728.126 562.048 728.584 561.922 728.948 561.67C729.321 561.409 729.582 561.063 729.732 560.634H731.104C730.898 561.371 730.488 561.973 729.872 562.44C729.256 562.897 728.49 563.126 727.576 563.126C726.848 563.126 726.194 562.963 725.616 562.636C725.046 562.309 724.598 561.847 724.272 561.25C723.945 560.643 723.782 559.943 723.782 559.15C723.782 558.357 723.94 557.661 724.258 557.064C724.575 556.467 725.018 556.009 725.588 555.692C726.166 555.365 726.829 555.202 727.576 555.202C728.304 555.202 728.948 555.361 729.508 555.678C730.068 555.995 730.497 556.434 730.796 556.994C731.104 557.545 731.258 558.17 731.258 558.87ZM729.942 558.604C729.942 558.119 729.834 557.703 729.62 557.358C729.405 557.003 729.111 556.737 728.738 556.56C728.374 556.373 727.968 556.28 727.52 556.28C726.876 556.28 726.325 556.485 725.868 556.896C725.42 557.307 725.163 557.876 725.098 558.604H729.942ZM746.892 555.328L744.498 563H743.182L741.334 556.91L739.486 563H738.17L735.762 555.328H737.064L738.828 561.768L740.732 555.328H742.034L743.896 561.782L745.632 555.328H746.892ZM748.814 554.082C748.571 554.082 748.366 553.998 748.198 553.83C748.03 553.662 747.946 553.457 747.946 553.214C747.946 552.971 748.03 552.766 748.198 552.598C748.366 552.43 748.571 552.346 748.814 552.346C749.047 552.346 749.243 552.43 749.402 552.598C749.57 552.766 749.654 552.971 749.654 553.214C749.654 553.457 749.57 553.662 749.402 553.83C749.243 553.998 749.047 554.082 748.814 554.082ZM749.43 555.328V563H748.156V555.328H749.43ZM753.155 556.378V560.9C753.155 561.273 753.235 561.539 753.393 561.698C753.552 561.847 753.827 561.922 754.219 561.922H755.157V563H754.009C753.3 563 752.768 562.837 752.413 562.51C752.059 562.183 751.881 561.647 751.881 560.9V556.378H750.887V555.328H751.881V553.396H753.155V555.328H755.157V556.378H753.155ZM760.509 555.188C761.088 555.188 761.61 555.314 762.077 555.566C762.544 555.809 762.908 556.177 763.169 556.672C763.44 557.167 763.575 557.769 763.575 558.478V563H762.315V558.66C762.315 557.895 762.124 557.311 761.741 556.91C761.358 556.499 760.836 556.294 760.173 556.294C759.501 556.294 758.964 556.504 758.563 556.924C758.171 557.344 757.975 557.955 757.975 558.758V563H756.701V552.64H757.975V556.42C758.227 556.028 758.572 555.725 759.011 555.51C759.459 555.295 759.958 555.188 760.509 555.188ZM776.781 556.07C776.51 555.501 776.118 555.062 775.605 554.754C775.091 554.437 774.494 554.278 773.813 554.278C773.131 554.278 772.515 554.437 771.965 554.754C771.423 555.062 770.994 555.51 770.677 556.098C770.369 556.677 770.215 557.349 770.215 558.114C770.215 558.879 770.369 559.551 770.677 560.13C770.994 560.709 771.423 561.157 771.965 561.474C772.515 561.782 773.131 561.936 773.813 561.936C774.765 561.936 775.549 561.651 776.165 561.082C776.781 560.513 777.14 559.743 777.243 558.772H773.351V557.736H778.601V558.716C778.526 559.519 778.274 560.256 777.845 560.928C777.415 561.591 776.851 562.118 776.151 562.51C775.451 562.893 774.671 563.084 773.813 563.084C772.907 563.084 772.081 562.874 771.335 562.454C770.588 562.025 769.995 561.432 769.557 560.676C769.127 559.92 768.913 559.066 768.913 558.114C768.913 557.162 769.127 556.308 769.557 555.552C769.995 554.787 770.588 554.194 771.335 553.774C772.081 553.345 772.907 553.13 773.813 553.13C774.849 553.13 775.763 553.387 776.557 553.9C777.359 554.413 777.943 555.137 778.307 556.07H776.781ZM783.631 563.126C782.912 563.126 782.259 562.963 781.671 562.636C781.092 562.309 780.635 561.847 780.299 561.25C779.972 560.643 779.809 559.943 779.809 559.15C779.809 558.366 779.977 557.675 780.313 557.078C780.658 556.471 781.125 556.009 781.713 555.692C782.301 555.365 782.959 555.202 783.687 555.202C784.415 555.202 785.073 555.365 785.661 555.692C786.249 556.009 786.711 556.467 787.047 557.064C787.392 557.661 787.565 558.357 787.565 559.15C787.565 559.943 787.388 560.643 787.033 561.25C786.688 561.847 786.216 562.309 785.619 562.636C785.022 562.963 784.359 563.126 783.631 563.126ZM783.631 562.006C784.088 562.006 784.518 561.899 784.919 561.684C785.32 561.469 785.642 561.147 785.885 560.718C786.137 560.289 786.263 559.766 786.263 559.15C786.263 558.534 786.142 558.011 785.899 557.582C785.656 557.153 785.339 556.835 784.947 556.63C784.555 556.415 784.13 556.308 783.673 556.308C783.206 556.308 782.777 556.415 782.385 556.63C782.002 556.835 781.694 557.153 781.461 557.582C781.228 558.011 781.111 558.534 781.111 559.15C781.111 559.775 781.223 560.303 781.447 560.732C781.68 561.161 781.988 561.483 782.371 561.698C782.754 561.903 783.174 562.006 783.631 562.006ZM792.586 563.126C791.867 563.126 791.214 562.963 790.626 562.636C790.047 562.309 789.59 561.847 789.254 561.25C788.927 560.643 788.764 559.943 788.764 559.15C788.764 558.366 788.932 557.675 789.268 557.078C789.613 556.471 790.08 556.009 790.668 555.692C791.256 555.365 791.914 555.202 792.642 555.202C793.37 555.202 794.028 555.365 794.616 555.692C795.204 556.009 795.666 556.467 796.002 557.064C796.347 557.661 796.52 558.357 796.52 559.15C796.52 559.943 796.343 560.643 795.988 561.25C795.643 561.847 795.171 562.309 794.574 562.636C793.977 562.963 793.314 563.126 792.586 563.126ZM792.586 562.006C793.043 562.006 793.473 561.899 793.874 561.684C794.275 561.469 794.597 561.147 794.84 560.718C795.092 560.289 795.218 559.766 795.218 559.15C795.218 558.534 795.097 558.011 794.854 557.582C794.611 557.153 794.294 556.835 793.902 556.63C793.51 556.415 793.085 556.308 792.628 556.308C792.161 556.308 791.732 556.415 791.34 556.63C790.957 556.835 790.649 557.153 790.416 557.582C790.183 558.011 790.066 558.534 790.066 559.15C790.066 559.775 790.178 560.303 790.402 560.732C790.635 561.161 790.943 561.483 791.326 561.698C791.709 561.903 792.129 562.006 792.586 562.006ZM801.359 555.202C802.022 555.202 802.601 555.347 803.095 555.636C803.599 555.925 803.973 556.289 804.215 556.728V555.328H805.503V563.168C805.503 563.868 805.354 564.489 805.055 565.03C804.757 565.581 804.327 566.01 803.767 566.318C803.217 566.626 802.573 566.78 801.835 566.78C800.827 566.78 799.987 566.542 799.315 566.066C798.643 565.59 798.247 564.941 798.125 564.12H799.385C799.525 564.587 799.815 564.96 800.253 565.24C800.692 565.529 801.219 565.674 801.835 565.674C802.535 565.674 803.105 565.455 803.543 565.016C803.991 564.577 804.215 563.961 804.215 563.168V561.558C803.963 562.006 803.59 562.379 803.095 562.678C802.601 562.977 802.022 563.126 801.359 563.126C800.678 563.126 800.057 562.958 799.497 562.622C798.947 562.286 798.513 561.815 798.195 561.208C797.878 560.601 797.719 559.911 797.719 559.136C797.719 558.352 797.878 557.666 798.195 557.078C798.513 556.481 798.947 556.019 799.497 555.692C800.057 555.365 800.678 555.202 801.359 555.202ZM804.215 559.15C804.215 558.571 804.099 558.067 803.865 557.638C803.632 557.209 803.315 556.882 802.913 556.658C802.521 556.425 802.087 556.308 801.611 556.308C801.135 556.308 800.701 556.42 800.309 556.644C799.917 556.868 799.605 557.195 799.371 557.624C799.138 558.053 799.021 558.557 799.021 559.136C799.021 559.724 799.138 560.237 799.371 560.676C799.605 561.105 799.917 561.437 800.309 561.67C800.701 561.894 801.135 562.006 801.611 562.006C802.087 562.006 802.521 561.894 802.913 561.67C803.315 561.437 803.632 561.105 803.865 560.676C804.099 560.237 804.215 559.729 804.215 559.15ZM808.93 552.64V563H807.656V552.64H808.93ZM818.101 558.87C818.101 559.113 818.087 559.369 818.059 559.64H811.927C811.974 560.396 812.231 560.989 812.697 561.418C813.173 561.838 813.747 562.048 814.419 562.048C814.97 562.048 815.427 561.922 815.791 561.67C816.165 561.409 816.426 561.063 816.575 560.634H817.947C817.742 561.371 817.331 561.973 816.715 562.44C816.099 562.897 815.334 563.126 814.419 563.126C813.691 563.126 813.038 562.963 812.459 562.636C811.89 562.309 811.442 561.847 811.115 561.25C810.789 560.643 810.625 559.943 810.625 559.15C810.625 558.357 810.784 557.661 811.101 557.064C811.419 556.467 811.862 556.009 812.431 555.692C813.01 555.365 813.673 555.202 814.419 555.202C815.147 555.202 815.791 555.361 816.351 555.678C816.911 555.995 817.341 556.434 817.639 556.994C817.947 557.545 818.101 558.17 818.101 558.87ZM816.785 558.604C816.785 558.119 816.678 557.703 816.463 557.358C816.249 557.003 815.955 556.737 815.581 556.56C815.217 556.373 814.811 556.28 814.363 556.28C813.719 556.28 813.169 556.485 812.711 556.896C812.263 557.307 812.007 557.876 811.941 558.604H816.785Z" fill="#333333"/>
<path d="M545.016 242.636V251H543.924V242.636H545.016ZM550.081 244.304C550.881 244.304 551.529 244.548 552.025 245.036C552.521 245.516 552.769 246.212 552.769 247.124V251H551.689V247.28C551.689 246.624 551.525 246.124 551.197 245.78C550.869 245.428 550.421 245.252 549.853 245.252C549.277 245.252 548.817 245.432 548.473 245.792C548.137 246.152 547.969 246.676 547.969 247.364V251H546.877V244.424H547.969V245.36C548.185 245.024 548.477 244.764 548.845 244.58C549.221 244.396 549.633 244.304 550.081 244.304ZM557.757 244.304C558.557 244.304 559.205 244.548 559.701 245.036C560.197 245.516 560.445 246.212 560.445 247.124V251H559.365V247.28C559.365 246.624 559.201 246.124 558.873 245.78C558.545 245.428 558.097 245.252 557.529 245.252C556.953 245.252 556.493 245.432 556.149 245.792C555.813 246.152 555.645 246.676 555.645 247.364V251H554.553V244.424H555.645V245.36C555.861 245.024 556.153 244.764 556.521 244.58C556.897 244.396 557.309 244.304 557.757 244.304ZM565.097 251.108C564.481 251.108 563.921 250.968 563.417 250.688C562.921 250.408 562.529 250.012 562.241 249.5C561.961 248.98 561.821 248.38 561.821 247.7C561.821 247.028 561.965 246.436 562.253 245.924C562.549 245.404 562.949 245.008 563.453 244.736C563.957 244.456 564.521 244.316 565.145 244.316C565.769 244.316 566.333 244.456 566.837 244.736C567.341 245.008 567.737 245.4 568.025 245.912C568.321 246.424 568.469 247.02 568.469 247.7C568.469 248.38 568.317 248.98 568.013 249.5C567.717 250.012 567.313 250.408 566.801 250.688C566.289 250.968 565.721 251.108 565.097 251.108ZM565.097 250.148C565.489 250.148 565.857 250.056 566.201 249.872C566.545 249.688 566.821 249.412 567.029 249.044C567.245 248.676 567.353 248.228 567.353 247.7C567.353 247.172 567.249 246.724 567.041 246.356C566.833 245.988 566.561 245.716 566.225 245.54C565.889 245.356 565.525 245.264 565.133 245.264C564.733 245.264 564.365 245.356 564.029 245.54C563.701 245.716 563.437 245.988 563.237 246.356C563.037 246.724 562.937 247.172 562.937 247.7C562.937 248.236 563.033 248.688 563.225 249.056C563.425 249.424 563.689 249.7 564.017 249.884C564.345 250.06 564.705 250.148 565.097 250.148ZM572.352 249.992L574.392 244.424H575.556L572.976 251H571.704L569.124 244.424H570.3L572.352 249.992ZM576.223 247.688C576.223 247.016 576.359 246.428 576.631 245.924C576.903 245.412 577.275 245.016 577.747 244.736C578.227 244.456 578.759 244.316 579.343 244.316C579.919 244.316 580.419 244.44 580.843 244.688C581.267 244.936 581.583 245.248 581.791 245.624V244.424H582.895V251H581.791V249.776C581.575 250.16 581.251 250.48 580.819 250.736C580.395 250.984 579.899 251.108 579.331 251.108C578.747 251.108 578.219 250.964 577.747 250.676C577.275 250.388 576.903 249.984 576.631 249.464C576.359 248.944 576.223 248.352 576.223 247.688ZM581.791 247.7C581.791 247.204 581.691 246.772 581.491 246.404C581.291 246.036 581.019 245.756 580.675 245.564C580.339 245.364 579.967 245.264 579.559 245.264C579.151 245.264 578.779 245.36 578.443 245.552C578.107 245.744 577.839 246.024 577.639 246.392C577.439 246.76 577.339 247.192 577.339 247.688C577.339 248.192 577.439 248.632 577.639 249.008C577.839 249.376 578.107 249.66 578.443 249.86C578.779 250.052 579.151 250.148 579.559 250.148C579.967 250.148 580.339 250.052 580.675 249.86C581.019 249.66 581.291 249.376 581.491 249.008C581.691 248.632 581.791 248.196 581.791 247.7ZM586.072 245.324V249.2C586.072 249.52 586.14 249.748 586.276 249.884C586.412 250.012 586.648 250.076 586.984 250.076H587.788V251H586.804C586.196 251 585.74 250.86 585.436 250.58C585.132 250.3 584.98 249.84 584.98 249.2V245.324H584.128V244.424H584.98V242.768H586.072V244.424H587.788V245.324H586.072ZM589.676 243.356C589.468 243.356 589.292 243.284 589.148 243.14C589.004 242.996 588.932 242.82 588.932 242.612C588.932 242.404 589.004 242.228 589.148 242.084C589.292 241.94 589.468 241.868 589.676 241.868C589.876 241.868 590.044 241.94 590.18 242.084C590.324 242.228 590.396 242.404 590.396 242.612C590.396 242.82 590.324 242.996 590.18 243.14C590.044 243.284 589.876 243.356 589.676 243.356ZM590.204 244.424V251H589.112V244.424H590.204ZM594.513 249.992L596.553 244.424H597.717L595.137 251H593.865L591.285 244.424H592.461L594.513 249.992ZM604.791 247.46C604.791 247.668 604.779 247.888 604.755 248.12H599.499C599.539 248.768 599.759 249.276 600.159 249.644C600.567 250.004 601.059 250.184 601.635 250.184C602.107 250.184 602.499 250.076 602.811 249.86C603.131 249.636 603.355 249.34 603.483 248.972H604.659C604.483 249.604 604.131 250.12 603.603 250.52C603.075 250.912 602.419 251.108 601.635 251.108C601.011 251.108 600.451 250.968 599.955 250.688C599.467 250.408 599.083 250.012 598.803 249.5C598.523 248.98 598.383 248.38 598.383 247.7C598.383 247.02 598.519 246.424 598.791 245.912C599.063 245.4 599.443 245.008 599.931 244.736C600.427 244.456 600.995 244.316 601.635 244.316C602.259 244.316 602.811 244.452 603.291 244.724C603.771 244.996 604.139 245.372 604.395 245.852C604.659 246.324 604.791 246.86 604.791 247.46ZM603.663 247.232C603.663 246.816 603.571 246.46 603.387 246.164C603.203 245.86 602.951 245.632 602.631 245.48C602.319 245.32 601.971 245.24 601.587 245.24C601.035 245.24 600.563 245.416 600.171 245.768C599.787 246.12 599.567 246.608 599.511 247.232H603.663ZM612.084 251.084C611.532 251.084 611.036 250.988 610.596 250.796C610.164 250.596 609.824 250.324 609.576 249.98C609.328 249.628 609.2 249.224 609.192 248.768H610.356C610.396 249.16 610.556 249.492 610.836 249.764C611.124 250.028 611.54 250.16 612.084 250.16C612.604 250.16 613.012 250.032 613.308 249.776C613.612 249.512 613.764 249.176 613.764 248.768C613.764 248.448 613.676 248.188 613.5 247.988C613.324 247.788 613.104 247.636 612.84 247.532C612.576 247.428 612.22 247.316 611.772 247.196C611.22 247.052 610.776 246.908 610.44 246.764C610.112 246.62 609.828 246.396 609.588 246.092C609.356 245.78 609.24 245.364 609.24 244.844C609.24 244.388 609.356 243.984 609.588 243.632C609.82 243.28 610.144 243.008 610.56 242.816C610.984 242.624 611.468 242.528 612.012 242.528C612.796 242.528 613.436 242.724 613.932 243.116C614.436 243.508 614.72 244.028 614.784 244.676H613.584C613.544 244.356 613.376 244.076 613.08 243.836C612.784 243.588 612.392 243.464 611.904 243.464C611.448 243.464 611.076 243.584 610.788 243.824C610.5 244.056 610.356 244.384 610.356 244.808C610.356 245.112 610.44 245.36 610.608 245.552C610.784 245.744 610.996 245.892 611.244 245.996C611.5 246.092 611.856 246.204 612.312 246.332C612.864 246.484 613.308 246.636 613.644 246.788C613.98 246.932 614.268 247.16 614.508 247.472C614.748 247.776 614.868 248.192 614.868 248.72C614.868 249.128 614.76 249.512 614.544 249.872C614.328 250.232 614.008 250.524 613.584 250.748C613.16 250.972 612.66 251.084 612.084 251.084ZM619.343 251.108C618.727 251.108 618.167 250.968 617.663 250.688C617.167 250.408 616.775 250.012 616.487 249.5C616.207 248.98 616.067 248.38 616.067 247.7C616.067 247.028 616.211 246.436 616.499 245.924C616.795 245.404 617.195 245.008 617.699 244.736C618.203 244.456 618.767 244.316 619.391 244.316C620.015 244.316 620.579 244.456 621.083 244.736C621.587 245.008 621.983 245.4 622.271 245.912C622.567 246.424 622.715 247.02 622.715 247.7C622.715 248.38 622.563 248.98 622.259 249.5C621.963 250.012 621.559 250.408 621.047 250.688C620.535 250.968 619.967 251.108 619.343 251.108ZM619.343 250.148C619.735 250.148 620.103 250.056 620.447 249.872C620.791 249.688 621.067 249.412 621.275 249.044C621.491 248.676 621.599 248.228 621.599 247.7C621.599 247.172 621.495 246.724 621.287 246.356C621.079 245.988 620.807 245.716 620.471 245.54C620.135 245.356 619.771 245.264 619.379 245.264C618.979 245.264 618.611 245.356 618.275 245.54C617.947 245.716 617.683 245.988 617.483 246.356C617.283 246.724 617.183 247.172 617.183 247.7C617.183 248.236 617.279 248.688 617.471 249.056C617.671 249.424 617.935 249.7 618.263 249.884C618.591 250.06 618.951 250.148 619.343 250.148ZM629.983 244.424V251H628.891V250.028C628.683 250.364 628.391 250.628 628.015 250.82C627.647 251.004 627.239 251.096 626.791 251.096C626.279 251.096 625.819 250.992 625.411 250.784C625.003 250.568 624.679 250.248 624.439 249.824C624.207 249.4 624.091 248.884 624.091 248.276V244.424H625.171V248.132C625.171 248.78 625.335 249.28 625.663 249.632C625.991 249.976 626.439 250.148 627.007 250.148C627.591 250.148 628.051 249.968 628.387 249.608C628.723 249.248 628.891 248.724 628.891 248.036V244.424H629.983ZM632.918 245.492C633.11 245.116 633.382 244.824 633.734 244.616C634.094 244.408 634.53 244.304 635.042 244.304V245.432H634.754C633.53 245.432 632.918 246.096 632.918 247.424V251H631.826V244.424H632.918V245.492ZM635.895 247.7C635.895 247.02 636.031 246.428 636.303 245.924C636.575 245.412 636.951 245.016 637.431 244.736C637.919 244.456 638.475 244.316 639.099 244.316C639.907 244.316 640.571 244.512 641.091 244.904C641.619 245.296 641.967 245.84 642.135 246.536H640.959C640.847 246.136 640.627 245.82 640.299 245.588C639.979 245.356 639.579 245.24 639.099 245.24C638.475 245.24 637.971 245.456 637.587 245.888C637.203 246.312 637.011 246.916 637.011 247.7C637.011 248.492 637.203 249.104 637.587 249.536C637.971 249.968 638.475 250.184 639.099 250.184C639.579 250.184 639.979 250.072 640.299 249.848C640.619 249.624 640.839 249.304 640.959 248.888H642.135C641.959 249.56 641.607 250.1 641.079 250.508C640.551 250.908 639.891 251.108 639.099 251.108C638.475 251.108 637.919 250.968 637.431 250.688C636.951 250.408 636.575 250.012 636.303 249.5C636.031 248.988 635.895 248.388 635.895 247.7ZM649.592 247.46C649.592 247.668 649.58 247.888 649.556 248.12H644.3C644.34 248.768 644.56 249.276 644.96 249.644C645.368 250.004 645.86 250.184 646.436 250.184C646.908 250.184 647.3 250.076 647.612 249.86C647.932 249.636 648.156 249.34 648.284 248.972H649.46C649.284 249.604 648.932 250.12 648.404 250.52C647.876 250.912 647.22 251.108 646.436 251.108C645.812 251.108 645.252 250.968 644.756 250.688C644.268 250.408 643.884 250.012 643.604 249.5C643.324 248.98 643.184 248.38 643.184 247.7C643.184 247.02 643.32 246.424 643.592 245.912C643.864 245.4 644.244 245.008 644.732 244.736C645.228 244.456 645.796 244.316 646.436 244.316C647.06 244.316 647.612 244.452 648.092 244.724C648.572 244.996 648.94 245.372 649.196 245.852C649.46 246.324 649.592 246.86 649.592 247.46ZM648.464 247.232C648.464 246.816 648.372 246.46 648.188 246.164C648.004 245.86 647.752 245.632 647.432 245.48C647.12 245.32 646.772 245.24 646.388 245.24C645.836 245.24 645.364 245.416 644.972 245.768C644.588 246.12 644.368 246.608 644.312 247.232H648.464ZM656.909 245.324H655.529V251H654.437V245.324H653.585V244.424H654.437V243.956C654.437 243.22 654.625 242.684 655.001 242.348C655.385 242.004 655.997 241.832 656.837 241.832V242.744C656.357 242.744 656.017 242.84 655.817 243.032C655.625 243.216 655.529 243.524 655.529 243.956V244.424H656.909V245.324ZM661.05 251.108C660.434 251.108 659.874 250.968 659.37 250.688C658.874 250.408 658.482 250.012 658.194 249.5C657.914 248.98 657.774 248.38 657.774 247.7C657.774 247.028 657.918 246.436 658.206 245.924C658.502 245.404 658.902 245.008 659.406 244.736C659.91 244.456 660.474 244.316 661.098 244.316C661.722 244.316 662.286 244.456 662.79 244.736C663.294 245.008 663.69 245.4 663.978 245.912C664.274 246.424 664.422 247.02 664.422 247.7C664.422 248.38 664.27 248.98 663.966 249.5C663.67 250.012 663.266 250.408 662.754 250.688C662.242 250.968 661.674 251.108 661.05 251.108ZM661.05 250.148C661.442 250.148 661.81 250.056 662.154 249.872C662.498 249.688 662.774 249.412 662.982 249.044C663.198 248.676 663.306 248.228 663.306 247.7C663.306 247.172 663.202 246.724 662.994 246.356C662.786 245.988 662.514 245.716 662.178 245.54C661.842 245.356 661.478 245.264 661.086 245.264C660.686 245.264 660.318 245.356 659.982 245.54C659.654 245.716 659.39 245.988 659.19 246.356C658.99 246.724 658.89 247.172 658.89 247.7C658.89 248.236 658.986 248.688 659.178 249.056C659.378 249.424 659.642 249.7 659.97 249.884C660.298 250.06 660.658 250.148 661.05 250.148ZM666.95 245.492C667.142 245.116 667.414 244.824 667.766 244.616C668.126 244.408 668.562 244.304 669.074 244.304V245.432H668.786C667.562 245.432 666.95 246.096 666.95 247.424V251H665.858V244.424H666.95V245.492ZM674.625 242.636V251H673.533V242.636H674.625ZM682.079 245.084C682.079 245.78 681.839 246.36 681.359 246.824C680.887 247.28 680.163 247.508 679.187 247.508H677.579V251H676.487V242.636H679.187C680.131 242.636 680.847 242.864 681.335 243.32C681.831 243.776 682.079 244.364 682.079 245.084ZM679.187 246.608C679.795 246.608 680.243 246.476 680.531 246.212C680.819 245.948 680.963 245.572 680.963 245.084C680.963 244.052 680.371 243.536 679.187 243.536H677.579V246.608H679.187ZM691.579 249.14H687.931L687.259 251H686.107L689.131 242.684H690.391L693.403 251H692.251L691.579 249.14ZM691.267 248.252L689.755 244.028L688.243 248.252H691.267ZM694.313 247.688C694.313 247.016 694.449 246.428 694.721 245.924C694.993 245.412 695.365 245.016 695.837 244.736C696.317 244.456 696.853 244.316 697.445 244.316C697.957 244.316 698.433 244.436 698.873 244.676C699.313 244.908 699.649 245.216 699.881 245.6V242.12H700.985V251H699.881V249.764C699.665 250.156 699.345 250.48 698.921 250.736C698.497 250.984 698.001 251.108 697.433 251.108C696.849 251.108 696.317 250.964 695.837 250.676C695.365 250.388 694.993 249.984 694.721 249.464C694.449 248.944 694.313 248.352 694.313 247.688ZM699.881 247.7C699.881 247.204 699.781 246.772 699.581 246.404C699.381 246.036 699.109 245.756 698.765 245.564C698.429 245.364 698.057 245.264 697.649 245.264C697.241 245.264 696.869 245.36 696.533 245.552C696.197 245.744 695.929 246.024 695.729 246.392C695.529 246.76 695.429 247.192 695.429 247.688C695.429 248.192 695.529 248.632 695.729 249.008C695.929 249.376 696.197 249.66 696.533 249.86C696.869 250.052 697.241 250.148 697.649 250.148C698.057 250.148 698.429 250.052 698.765 249.86C699.109 249.66 699.381 249.376 699.581 249.008C699.781 248.632 699.881 248.196 699.881 247.7ZM702.422 247.688C702.422 247.016 702.558 246.428 702.83 245.924C703.102 245.412 703.474 245.016 703.946 244.736C704.426 244.456 704.962 244.316 705.554 244.316C706.066 244.316 706.542 244.436 706.982 244.676C707.422 244.908 707.758 245.216 707.99 245.6V242.12H709.094V251H707.99V249.764C707.774 250.156 707.454 250.48 707.03 250.736C706.606 250.984 706.11 251.108 705.542 251.108C704.958 251.108 704.426 250.964 703.946 250.676C703.474 250.388 703.102 249.984 702.83 249.464C702.558 248.944 702.422 248.352 702.422 247.688ZM707.99 247.7C707.99 247.204 707.89 246.772 707.69 246.404C707.49 246.036 707.218 245.756 706.874 245.564C706.538 245.364 706.166 245.264 705.758 245.264C705.35 245.264 704.978 245.36 704.642 245.552C704.306 245.744 704.038 246.024 703.838 246.392C703.638 246.76 703.538 247.192 703.538 247.688C703.538 248.192 703.638 248.632 703.838 249.008C704.038 249.376 704.306 249.66 704.642 249.86C704.978 250.052 705.35 250.148 705.758 250.148C706.166 250.148 706.538 250.052 706.874 249.86C707.218 249.66 707.49 249.376 707.69 249.008C707.89 248.632 707.99 248.196 707.99 247.7ZM712.032 245.492C712.224 245.116 712.496 244.824 712.848 244.616C713.208 244.408 713.644 244.304 714.156 244.304V245.432H713.868C712.644 245.432 712.032 246.096 712.032 247.424V251H710.94V244.424H712.032V245.492ZM721.416 247.46C721.416 247.668 721.404 247.888 721.38 248.12H716.124C716.164 248.768 716.384 249.276 716.784 249.644C717.192 250.004 717.684 250.184 718.26 250.184C718.732 250.184 719.124 250.076 719.436 249.86C719.756 249.636 719.98 249.34 720.108 248.972H721.284C721.108 249.604 720.756 250.12 720.228 250.52C719.7 250.912 719.044 251.108 718.26 251.108C717.636 251.108 717.076 250.968 716.58 250.688C716.092 250.408 715.708 250.012 715.428 249.5C715.148 248.98 715.008 248.38 715.008 247.7C715.008 247.02 715.144 246.424 715.416 245.912C715.688 245.4 716.068 245.008 716.556 244.736C717.052 244.456 717.62 244.316 718.26 244.316C718.884 244.316 719.436 244.452 719.916 244.724C720.396 244.996 720.764 245.372 721.02 245.852C721.284 246.324 721.416 246.86 721.416 247.46ZM720.288 247.232C720.288 246.816 720.196 246.46 720.012 246.164C719.828 245.86 719.576 245.632 719.256 245.48C718.944 245.32 718.596 245.24 718.212 245.24C717.66 245.24 717.188 245.416 716.796 245.768C716.412 246.12 716.192 246.608 716.136 247.232H720.288ZM725.186 251.108C724.682 251.108 724.23 251.024 723.83 250.856C723.43 250.68 723.114 250.44 722.882 250.136C722.65 249.824 722.522 249.468 722.498 249.068H723.626C723.658 249.396 723.81 249.664 724.082 249.872C724.362 250.08 724.726 250.184 725.174 250.184C725.59 250.184 725.918 250.092 726.158 249.908C726.398 249.724 726.518 249.492 726.518 249.212C726.518 248.924 726.39 248.712 726.134 248.576C725.878 248.432 725.482 248.292 724.946 248.156C724.458 248.028 724.058 247.9 723.746 247.772C723.442 247.636 723.178 247.44 722.954 247.184C722.738 246.92 722.63 246.576 722.63 246.152C722.63 245.816 722.73 245.508 722.93 245.228C723.13 244.948 723.414 244.728 723.782 244.568C724.15 244.4 724.57 244.316 725.042 244.316C725.77 244.316 726.358 244.5 726.806 244.868C727.254 245.236 727.494 245.74 727.526 246.38H726.434C726.41 246.036 726.27 245.76 726.014 245.552C725.766 245.344 725.43 245.24 725.006 245.24C724.614 245.24 724.302 245.324 724.07 245.492C723.838 245.66 723.722 245.88 723.722 246.152C723.722 246.368 723.79 246.548 723.926 246.692C724.07 246.828 724.246 246.94 724.454 247.028C724.67 247.108 724.966 247.2 725.342 247.304C725.814 247.432 726.198 247.56 726.494 247.688C726.79 247.808 727.042 247.992 727.25 248.24C727.466 248.488 727.578 248.812 727.586 249.212C727.586 249.572 727.486 249.896 727.286 250.184C727.086 250.472 726.802 250.7 726.434 250.868C726.074 251.028 725.658 251.108 725.186 251.108ZM731.455 251.108C730.951 251.108 730.499 251.024 730.099 250.856C729.699 250.68 729.383 250.44 729.151 250.136C728.919 249.824 728.791 249.468 728.767 249.068H729.895C729.927 249.396 730.079 249.664 730.351 249.872C730.631 250.08 730.995 250.184 731.443 250.184C731.859 250.184 732.187 250.092 732.427 249.908C732.667 249.724 732.787 249.492 732.787 249.212C732.787 248.924 732.659 248.712 732.403 248.576C732.147 248.432 731.751 248.292 731.215 248.156C730.727 248.028 730.327 247.9 730.015 247.772C729.711 247.636 729.447 247.44 729.223 247.184C729.007 246.92 728.899 246.576 728.899 246.152C728.899 245.816 728.999 245.508 729.199 245.228C729.399 244.948 729.683 244.728 730.051 244.568C730.419 244.4 730.839 244.316 731.311 244.316C732.039 244.316 732.627 244.5 733.075 244.868C733.523 245.236 733.763 245.74 733.795 246.38H732.703C732.679 246.036 732.539 245.76 732.283 245.552C732.035 245.344 731.699 245.24 731.275 245.24C730.883 245.24 730.571 245.324 730.339 245.492C730.107 245.66 729.991 245.88 729.991 246.152C729.991 246.368 730.059 246.548 730.195 246.692C730.339 246.828 730.515 246.94 730.723 247.028C730.939 247.108 731.235 247.2 731.611 247.304C732.083 247.432 732.467 247.56 732.763 247.688C733.059 247.808 733.311 247.992 733.519 248.24C733.735 248.488 733.847 248.812 733.855 249.212C733.855 249.572 733.755 249.896 733.555 250.184C733.355 250.472 733.071 250.7 732.703 250.868C732.343 251.028 731.927 251.108 731.455 251.108ZM741.2 242.636C742.112 242.636 742.9 242.808 743.564 243.152C744.236 243.488 744.748 243.972 745.1 244.604C745.46 245.236 745.64 245.98 745.64 246.836C745.64 247.692 745.46 248.436 745.1 249.068C744.748 249.692 744.236 250.172 743.564 250.508C742.9 250.836 742.112 251 741.2 251H738.596V242.636H741.2ZM741.2 250.1C742.28 250.1 743.104 249.816 743.672 249.248C744.24 248.672 744.524 247.868 744.524 246.836C744.524 245.796 744.236 244.984 743.66 244.4C743.092 243.816 742.272 243.524 741.2 243.524H739.688V250.1H741.2ZM746.672 247.688C746.672 247.016 746.808 246.428 747.08 245.924C747.352 245.412 747.724 245.016 748.196 244.736C748.676 244.456 749.208 244.316 749.792 244.316C750.368 244.316 750.868 244.44 751.292 244.688C751.716 244.936 752.032 245.248 752.24 245.624V244.424H753.344V251H752.24V249.776C752.024 250.16 751.7 250.48 751.268 250.736C750.844 250.984 750.348 251.108 749.78 251.108C749.196 251.108 748.668 250.964 748.196 250.676C747.724 250.388 747.352 249.984 747.08 249.464C746.808 248.944 746.672 248.352 746.672 247.688ZM752.24 247.7C752.24 247.204 752.14 246.772 751.94 246.404C751.74 246.036 751.468 245.756 751.124 245.564C750.788 245.364 750.416 245.264 750.008 245.264C749.6 245.264 749.228 245.36 748.892 245.552C748.556 245.744 748.288 246.024 748.088 246.392C747.888 246.76 747.788 247.192 747.788 247.688C747.788 248.192 747.888 248.632 748.088 249.008C748.288 249.376 748.556 249.66 748.892 249.86C749.228 250.052 749.6 250.148 750.008 250.148C750.416 250.148 750.788 250.052 751.124 249.86C751.468 249.66 751.74 249.376 751.94 249.008C752.14 248.632 752.24 248.196 752.24 247.7ZM756.522 245.324V249.2C756.522 249.52 756.59 249.748 756.726 249.884C756.862 250.012 757.098 250.076 757.434 250.076H758.238V251H757.254C756.646 251 756.19 250.86 755.886 250.58C755.582 250.3 755.43 249.84 755.43 249.2V245.324H754.578V244.424H755.43V242.768H756.522V244.424H758.238V245.324H756.522ZM759.153 247.688C759.153 247.016 759.289 246.428 759.561 245.924C759.833 245.412 760.205 245.016 760.677 244.736C761.157 244.456 761.689 244.316 762.273 244.316C762.849 244.316 763.349 244.44 763.773 244.688C764.197 244.936 764.513 245.248 764.721 245.624V244.424H765.825V251H764.721V249.776C764.505 250.16 764.181 250.48 763.749 250.736C763.325 250.984 762.829 251.108 762.261 251.108C761.677 251.108 761.149 250.964 760.677 250.676C760.205 250.388 759.833 249.984 759.561 249.464C759.289 248.944 759.153 248.352 759.153 247.688ZM764.721 247.7C764.721 247.204 764.621 246.772 764.421 246.404C764.221 246.036 763.949 245.756 763.605 245.564C763.269 245.364 762.897 245.264 762.489 245.264C762.081 245.264 761.709 245.36 761.373 245.552C761.037 245.744 760.769 246.024 760.569 246.392C760.369 246.76 760.269 247.192 760.269 247.688C760.269 248.192 760.369 248.632 760.569 249.008C760.769 249.376 761.037 249.66 761.373 249.86C761.709 250.052 762.081 250.148 762.489 250.148C762.897 250.148 763.269 250.052 763.605 249.86C763.949 249.66 764.221 249.376 764.421 249.008C764.621 248.632 764.721 248.196 764.721 247.7Z" fill="#999999"/>
<path d="M652.001 626.41C652.255 626.45 652.485 626.553 652.691 626.72C652.905 626.887 653.071 627.093 653.191 627.34C653.318 627.587 653.381 627.85 653.381 628.13C653.381 628.483 653.291 628.803 653.111 629.09C652.931 629.37 652.668 629.593 652.321 629.76C651.981 629.92 651.578 630 651.111 630H648.511V623.03H651.011C651.485 623.03 651.888 623.11 652.221 623.27C652.555 623.423 652.805 623.633 652.971 623.9C653.138 624.167 653.221 624.467 653.221 624.8C653.221 625.213 653.108 625.557 652.881 625.83C652.661 626.097 652.368 626.29 652.001 626.41ZM649.421 626.04H650.951C651.378 626.04 651.708 625.94 651.941 625.74C652.175 625.54 652.291 625.263 652.291 624.91C652.291 624.557 652.175 624.28 651.941 624.08C651.708 623.88 651.371 623.78 650.931 623.78H649.421V626.04ZM651.031 629.25C651.485 629.25 651.838 629.143 652.091 628.93C652.345 628.717 652.471 628.42 652.471 628.04C652.471 627.653 652.338 627.35 652.071 627.13C651.805 626.903 651.448 626.79 651.001 626.79H649.421V629.25H651.031ZM659.364 624.52L656.064 632.58H655.124L656.204 629.94L653.994 624.52H655.004L656.724 628.96L658.424 624.52H659.364ZM664.885 630.09C664.465 630.09 664.088 630.02 663.755 629.88C663.421 629.733 663.158 629.533 662.965 629.28C662.771 629.02 662.665 628.723 662.645 628.39H663.585C663.611 628.663 663.738 628.887 663.965 629.06C664.198 629.233 664.501 629.32 664.875 629.32C665.221 629.32 665.495 629.243 665.695 629.09C665.895 628.937 665.995 628.743 665.995 628.51C665.995 628.27 665.888 628.093 665.675 627.98C665.461 627.86 665.131 627.743 664.685 627.63C664.278 627.523 663.945 627.417 663.685 627.31C663.431 627.197 663.211 627.033 663.025 626.82C662.845 626.6 662.755 626.313 662.755 625.96C662.755 625.68 662.838 625.423 663.005 625.19C663.171 624.957 663.408 624.773 663.715 624.64C664.021 624.5 664.371 624.43 664.765 624.43C665.371 624.43 665.861 624.583 666.235 624.89C666.608 625.197 666.808 625.617 666.835 626.15H665.925C665.905 625.863 665.788 625.633 665.575 625.46C665.368 625.287 665.088 625.2 664.735 625.2C664.408 625.2 664.148 625.27 663.955 625.41C663.761 625.55 663.665 625.733 663.665 625.96C663.665 626.14 663.721 626.29 663.835 626.41C663.955 626.523 664.101 626.617 664.275 626.69C664.455 626.757 664.701 626.833 665.015 626.92C665.408 627.027 665.728 627.133 665.975 627.24C666.221 627.34 666.431 627.493 666.605 627.7C666.785 627.907 666.878 628.177 666.885 628.51C666.885 628.81 666.801 629.08 666.635 629.32C666.468 629.56 666.231 629.75 665.925 629.89C665.625 630.023 665.278 630.09 664.885 630.09ZM668.639 623.63C668.466 623.63 668.319 623.57 668.199 623.45C668.079 623.33 668.019 623.183 668.019 623.01C668.019 622.837 668.079 622.69 668.199 622.57C668.319 622.45 668.466 622.39 668.639 622.39C668.806 622.39 668.946 622.45 669.059 622.57C669.179 622.69 669.239 622.837 669.239 623.01C669.239 623.183 669.179 623.33 669.059 623.45C668.946 623.57 668.806 623.63 668.639 623.63ZM669.079 624.52V630H668.169V624.52H669.079ZM672.89 624.43C673.364 624.43 673.777 624.533 674.13 624.74C674.49 624.947 674.757 625.207 674.93 625.52V624.52H675.85V630.12C675.85 630.62 675.744 631.063 675.53 631.45C675.317 631.843 675.01 632.15 674.61 632.37C674.217 632.59 673.757 632.7 673.23 632.7C672.51 632.7 671.91 632.53 671.43 632.19C670.95 631.85 670.667 631.387 670.58 630.8H671.48C671.58 631.133 671.787 631.4 672.1 631.6C672.414 631.807 672.79 631.91 673.23 631.91C673.73 631.91 674.137 631.753 674.45 631.44C674.77 631.127 674.93 630.687 674.93 630.12V628.97C674.75 629.29 674.484 629.557 674.13 629.77C673.777 629.983 673.364 630.09 672.89 630.09C672.404 630.09 671.96 629.97 671.56 629.73C671.167 629.49 670.857 629.153 670.63 628.72C670.404 628.287 670.29 627.793 670.29 627.24C670.29 626.68 670.404 626.19 670.63 625.77C670.857 625.343 671.167 625.013 671.56 624.78C671.96 624.547 672.404 624.43 672.89 624.43ZM674.93 627.25C674.93 626.837 674.847 626.477 674.68 626.17C674.514 625.863 674.287 625.63 674 625.47C673.72 625.303 673.41 625.22 673.07 625.22C672.73 625.22 672.42 625.3 672.14 625.46C671.86 625.62 671.637 625.853 671.47 626.16C671.304 626.467 671.22 626.827 671.22 627.24C671.22 627.66 671.304 628.027 671.47 628.34C671.637 628.647 671.86 628.883 672.14 629.05C672.42 629.21 672.73 629.29 673.07 629.29C673.41 629.29 673.72 629.21 674 629.05C674.287 628.883 674.514 628.647 674.68 628.34C674.847 628.027 674.93 627.663 674.93 627.25ZM680.058 624.42C680.725 624.42 681.265 624.623 681.678 625.03C682.091 625.43 682.298 626.01 682.298 626.77V630H681.398V626.9C681.398 626.353 681.261 625.937 680.988 625.65C680.715 625.357 680.341 625.21 679.868 625.21C679.388 625.21 679.005 625.36 678.718 625.66C678.438 625.96 678.298 626.397 678.298 626.97V630H677.388V624.52H678.298V625.3C678.478 625.02 678.721 624.803 679.028 624.65C679.341 624.497 679.685 624.42 680.058 624.42ZM684.255 623.63C684.081 623.63 683.935 623.57 683.815 623.45C683.695 623.33 683.635 623.183 683.635 623.01C683.635 622.837 683.695 622.69 683.815 622.57C683.935 622.45 684.081 622.39 684.255 622.39C684.421 622.39 684.561 622.45 684.675 622.57C684.795 622.69 684.855 622.837 684.855 623.01C684.855 623.183 684.795 623.33 684.675 623.45C684.561 623.57 684.421 623.63 684.255 623.63ZM684.695 624.52V630H683.785V624.52H684.695ZM688.916 624.42C689.582 624.42 690.122 624.623 690.536 625.03C690.949 625.43 691.156 626.01 691.156 626.77V630H690.256V626.9C690.256 626.353 690.119 625.937 689.846 625.65C689.572 625.357 689.199 625.21 688.726 625.21C688.246 625.21 687.862 625.36 687.576 625.66C687.296 625.96 687.156 626.397 687.156 626.97V630H686.246V624.52H687.156V625.3C687.336 625.02 687.579 624.803 687.886 624.65C688.199 624.497 688.542 624.42 688.916 624.42ZM694.902 624.43C695.375 624.43 695.789 624.533 696.142 624.74C696.502 624.947 696.769 625.207 696.942 625.52V624.52H697.862V630.12C697.862 630.62 697.755 631.063 697.542 631.45C697.329 631.843 697.022 632.15 696.622 632.37C696.229 632.59 695.769 632.7 695.242 632.7C694.522 632.7 693.922 632.53 693.442 632.19C692.962 631.85 692.679 631.387 692.592 630.8H693.492C693.592 631.133 693.799 631.4 694.112 631.6C694.425 631.807 694.802 631.91 695.242 631.91C695.742 631.91 696.149 631.753 696.462 631.44C696.782 631.127 696.942 630.687 696.942 630.12V628.97C696.762 629.29 696.495 629.557 696.142 629.77C695.789 629.983 695.375 630.09 694.902 630.09C694.415 630.09 693.972 629.97 693.572 629.73C693.179 629.49 692.869 629.153 692.642 628.72C692.415 628.287 692.302 627.793 692.302 627.24C692.302 626.68 692.415 626.19 692.642 625.77C692.869 625.343 693.179 625.013 693.572 624.78C693.972 624.547 694.415 624.43 694.902 624.43ZM696.942 627.25C696.942 626.837 696.859 626.477 696.692 626.17C696.525 625.863 696.299 625.63 696.012 625.47C695.732 625.303 695.422 625.22 695.082 625.22C694.742 625.22 694.432 625.3 694.152 625.46C693.872 625.62 693.649 625.853 693.482 626.16C693.315 626.467 693.232 626.827 693.232 627.24C693.232 627.66 693.315 628.027 693.482 628.34C693.649 628.647 693.872 628.883 694.152 629.05C694.432 629.21 694.742 629.29 695.082 629.29C695.422 629.29 695.732 629.21 696.012 629.05C696.299 628.883 696.525 628.647 696.692 628.34C696.859 628.027 696.942 627.663 696.942 627.25ZM702.536 623.63C702.363 623.63 702.216 623.57 702.096 623.45C701.976 623.33 701.916 623.183 701.916 623.01C701.916 622.837 701.976 622.69 702.096 622.57C702.216 622.45 702.363 622.39 702.536 622.39C702.703 622.39 702.843 622.45 702.956 622.57C703.076 622.69 703.136 622.837 703.136 623.01C703.136 623.183 703.076 623.33 702.956 623.45C702.843 623.57 702.703 623.63 702.536 623.63ZM702.976 624.52V630H702.066V624.52H702.976ZM707.197 624.42C707.864 624.42 708.404 624.623 708.817 625.03C709.23 625.43 709.437 626.01 709.437 626.77V630H708.537V626.9C708.537 626.353 708.4 625.937 708.127 625.65C707.854 625.357 707.48 625.21 707.007 625.21C706.527 625.21 706.144 625.36 705.857 625.66C705.577 625.96 705.437 626.397 705.437 626.97V630H704.527V624.52H705.437V625.3C705.617 625.02 705.86 624.803 706.167 624.65C706.48 624.497 706.824 624.42 707.197 624.42ZM718.309 624.52L715.009 632.58H714.069L715.149 629.94L712.939 624.52H713.949L715.669 628.96L717.369 624.52H718.309ZM721.614 630.09C721.101 630.09 720.634 629.973 720.214 629.74C719.801 629.507 719.474 629.177 719.234 628.75C719.001 628.317 718.884 627.817 718.884 627.25C718.884 626.69 719.004 626.197 719.244 625.77C719.491 625.337 719.824 625.007 720.244 624.78C720.664 624.547 721.134 624.43 721.654 624.43C722.174 624.43 722.644 624.547 723.064 624.78C723.484 625.007 723.814 625.333 724.054 625.76C724.301 626.187 724.424 626.683 724.424 627.25C724.424 627.817 724.297 628.317 724.044 628.75C723.797 629.177 723.461 629.507 723.034 629.74C722.607 629.973 722.134 630.09 721.614 630.09ZM721.614 629.29C721.941 629.29 722.247 629.213 722.534 629.06C722.821 628.907 723.051 628.677 723.224 628.37C723.404 628.063 723.494 627.69 723.494 627.25C723.494 626.81 723.407 626.437 723.234 626.13C723.061 625.823 722.834 625.597 722.554 625.45C722.274 625.297 721.971 625.22 721.644 625.22C721.311 625.22 721.004 625.297 720.724 625.45C720.451 625.597 720.231 625.823 720.064 626.13C719.897 626.437 719.814 626.81 719.814 627.25C719.814 627.697 719.894 628.073 720.054 628.38C720.221 628.687 720.441 628.917 720.714 629.07C720.987 629.217 721.287 629.29 721.614 629.29ZM730.481 624.52V630H729.571V629.19C729.397 629.47 729.154 629.69 728.841 629.85C728.534 630.003 728.194 630.08 727.821 630.08C727.394 630.08 727.011 629.993 726.671 629.82C726.331 629.64 726.061 629.373 725.861 629.02C725.667 628.667 725.571 628.237 725.571 627.73V624.52H726.471V627.61C726.471 628.15 726.607 628.567 726.881 628.86C727.154 629.147 727.527 629.29 728.001 629.29C728.487 629.29 728.871 629.14 729.151 628.84C729.431 628.54 729.571 628.103 729.571 627.53V624.52H730.481ZM734.343 627.24C734.343 626.68 734.456 626.19 734.683 625.77C734.91 625.343 735.22 625.013 735.613 624.78C736.013 624.547 736.456 624.43 736.943 624.43C737.423 624.43 737.84 624.533 738.193 624.74C738.546 624.947 738.81 625.207 738.983 625.52V624.52H739.903V630H738.983V628.98C738.803 629.3 738.533 629.567 738.173 629.78C737.82 629.987 737.406 630.09 736.933 630.09C736.446 630.09 736.006 629.97 735.613 629.73C735.22 629.49 734.91 629.153 734.683 628.72C734.456 628.287 734.343 627.793 734.343 627.24ZM738.983 627.25C738.983 626.837 738.9 626.477 738.733 626.17C738.566 625.863 738.34 625.63 738.053 625.47C737.773 625.303 737.463 625.22 737.123 625.22C736.783 625.22 736.473 625.3 736.193 625.46C735.913 625.62 735.69 625.853 735.523 626.16C735.356 626.467 735.273 626.827 735.273 627.24C735.273 627.66 735.356 628.027 735.523 628.34C735.69 628.647 735.913 628.883 736.193 629.05C736.473 629.21 736.783 629.29 737.123 629.29C737.463 629.29 737.773 629.21 738.053 629.05C738.34 628.883 738.566 628.647 738.733 628.34C738.9 628.027 738.983 627.663 738.983 627.25ZM741.101 627.25C741.101 626.683 741.214 626.19 741.441 625.77C741.668 625.343 741.981 625.013 742.381 624.78C742.788 624.547 743.251 624.43 743.771 624.43C744.444 624.43 744.998 624.593 745.431 624.92C745.871 625.247 746.161 625.7 746.301 626.28H745.321C745.228 625.947 745.044 625.683 744.771 625.49C744.504 625.297 744.171 625.2 743.771 625.2C743.251 625.2 742.831 625.38 742.511 625.74C742.191 626.093 742.031 626.597 742.031 627.25C742.031 627.91 742.191 628.42 742.511 628.78C742.831 629.14 743.251 629.32 743.771 629.32C744.171 629.32 744.504 629.227 744.771 629.04C745.038 628.853 745.221 628.587 745.321 628.24H746.301C746.154 628.8 745.861 629.25 745.421 629.59C744.981 629.923 744.431 630.09 743.771 630.09C743.251 630.09 742.788 629.973 742.381 629.74C741.981 629.507 741.668 629.177 741.441 628.75C741.214 628.323 741.101 627.823 741.101 627.25ZM747.175 627.25C747.175 626.683 747.288 626.19 747.515 625.77C747.742 625.343 748.055 625.013 748.455 624.78C748.862 624.547 749.325 624.43 749.845 624.43C750.518 624.43 751.072 624.593 751.505 624.92C751.945 625.247 752.235 625.7 752.375 626.28H751.395C751.302 625.947 751.118 625.683 750.845 625.49C750.578 625.297 750.245 625.2 749.845 625.2C749.325 625.2 748.905 625.38 748.585 625.74C748.265 626.093 748.105 626.597 748.105 627.25C748.105 627.91 748.265 628.42 748.585 628.78C748.905 629.14 749.325 629.32 749.845 629.32C750.245 629.32 750.578 629.227 750.845 629.04C751.112 628.853 751.295 628.587 751.395 628.24H752.375C752.228 628.8 751.935 629.25 751.495 629.59C751.055 629.923 750.505 630.09 749.845 630.09C749.325 630.09 748.862 629.973 748.455 629.74C748.055 629.507 747.742 629.177 747.515 628.75C747.288 628.323 747.175 627.823 747.175 627.25ZM758.589 627.05C758.589 627.223 758.579 627.407 758.559 627.6H754.179C754.213 628.14 754.396 628.563 754.729 628.87C755.069 629.17 755.479 629.32 755.959 629.32C756.353 629.32 756.679 629.23 756.939 629.05C757.206 628.863 757.393 628.617 757.499 628.31H758.479C758.333 628.837 758.039 629.267 757.599 629.6C757.159 629.927 756.613 630.09 755.959 630.09C755.439 630.09 754.973 629.973 754.559 629.74C754.153 629.507 753.833 629.177 753.599 628.75C753.366 628.317 753.249 627.817 753.249 627.25C753.249 626.683 753.363 626.187 753.589 625.76C753.816 625.333 754.133 625.007 754.539 624.78C754.953 624.547 755.426 624.43 755.959 624.43C756.479 624.43 756.939 624.543 757.339 624.77C757.739 624.997 758.046 625.31 758.259 625.71C758.479 626.103 758.589 626.55 758.589 627.05ZM757.649 626.86C757.649 626.513 757.573 626.217 757.419 625.97C757.266 625.717 757.056 625.527 756.789 625.4C756.529 625.267 756.239 625.2 755.919 625.2C755.459 625.2 755.066 625.347 754.739 625.64C754.419 625.933 754.236 626.34 754.189 626.86H757.649ZM760.701 625.53C760.881 625.217 761.147 624.957 761.501 624.75C761.861 624.537 762.277 624.43 762.751 624.43C763.237 624.43 763.677 624.547 764.071 624.78C764.471 625.013 764.784 625.343 765.011 625.77C765.237 626.19 765.351 626.68 765.351 627.24C765.351 627.793 765.237 628.287 765.011 628.72C764.784 629.153 764.471 629.49 764.071 629.73C763.677 629.97 763.237 630.09 762.751 630.09C762.284 630.09 761.871 629.987 761.511 629.78C761.157 629.567 760.887 629.303 760.701 628.99V632.6H759.791V624.52H760.701V625.53ZM764.421 627.24C764.421 626.827 764.337 626.467 764.171 626.16C764.004 625.853 763.777 625.62 763.491 625.46C763.211 625.3 762.901 625.22 762.561 625.22C762.227 625.22 761.917 625.303 761.631 625.47C761.351 625.63 761.124 625.867 760.951 626.18C760.784 626.487 760.701 626.843 760.701 627.25C760.701 627.663 760.784 628.027 760.951 628.34C761.124 628.647 761.351 628.883 761.631 629.05C761.917 629.21 762.227 629.29 762.561 629.29C762.901 629.29 763.211 629.21 763.491 629.05C763.777 628.883 764.004 628.647 764.171 628.34C764.337 628.027 764.421 627.66 764.421 627.24ZM767.658 625.27V628.5C767.658 628.767 767.715 628.957 767.828 629.07C767.942 629.177 768.138 629.23 768.418 629.23H769.088V630H768.268C767.762 630 767.382 629.883 767.128 629.65C766.875 629.417 766.748 629.033 766.748 628.5V625.27H766.038V624.52H766.748V623.14H767.658V624.52H769.088V625.27H767.658ZM775.247 630.09C774.734 630.09 774.267 629.973 773.847 629.74C773.434 629.507 773.107 629.177 772.867 628.75C772.634 628.317 772.517 627.817 772.517 627.25C772.517 626.69 772.637 626.197 772.877 625.77C773.124 625.337 773.457 625.007 773.877 624.78C774.297 624.547 774.767 624.43 775.287 624.43C775.807 624.43 776.277 624.547 776.697 624.78C777.117 625.007 777.447 625.333 777.687 625.76C777.934 626.187 778.057 626.683 778.057 627.25C778.057 627.817 777.93 628.317 777.677 628.75C777.43 629.177 777.094 629.507 776.667 629.74C776.24 629.973 775.767 630.09 775.247 630.09ZM775.247 629.29C775.574 629.29 775.88 629.213 776.167 629.06C776.454 628.907 776.684 628.677 776.857 628.37C777.037 628.063 777.127 627.69 777.127 627.25C777.127 626.81 777.04 626.437 776.867 626.13C776.694 625.823 776.467 625.597 776.187 625.45C775.907 625.297 775.604 625.22 775.277 625.22C774.944 625.22 774.637 625.297 774.357 625.45C774.084 625.597 773.864 625.823 773.697 626.13C773.53 626.437 773.447 626.81 773.447 627.25C773.447 627.697 773.527 628.073 773.687 628.38C773.854 628.687 774.074 628.917 774.347 629.07C774.62 629.217 774.92 629.29 775.247 629.29ZM784.113 624.52V630H783.203V629.19C783.03 629.47 782.787 629.69 782.473 629.85C782.167 630.003 781.827 630.08 781.453 630.08C781.027 630.08 780.643 629.993 780.303 629.82C779.963 629.64 779.693 629.373 779.493 629.02C779.3 628.667 779.203 628.237 779.203 627.73V624.52H780.103V627.61C780.103 628.15 780.24 628.567 780.513 628.86C780.787 629.147 781.16 629.29 781.633 629.29C782.12 629.29 782.503 629.14 782.783 628.84C783.063 628.54 783.203 628.103 783.203 627.53V624.52H784.113ZM786.56 625.41C786.72 625.097 786.947 624.853 787.24 624.68C787.54 624.507 787.903 624.42 788.33 624.42V625.36H788.09C787.07 625.36 786.56 625.913 786.56 627.02V630H785.65V624.52H786.56V625.41ZM790.32 628.74L789.2 631.43H788.59L789.32 628.74H790.32ZM644.413 638.03V638.77H642.513V645H641.603V638.77H639.693V638.03H644.413ZM650.533 642.05C650.533 642.223 650.523 642.407 650.503 642.6H646.123C646.156 643.14 646.339 643.563 646.673 643.87C647.013 644.17 647.423 644.32 647.903 644.32C648.296 644.32 648.623 644.23 648.883 644.05C649.149 643.863 649.336 643.617 649.443 643.31H650.423C650.276 643.837 649.983 644.267 649.543 644.6C649.103 644.927 648.556 645.09 647.903 645.09C647.383 645.09 646.916 644.973 646.503 644.74C646.096 644.507 645.776 644.177 645.543 643.75C645.309 643.317 645.193 642.817 645.193 642.25C645.193 641.683 645.306 641.187 645.533 640.76C645.759 640.333 646.076 640.007 646.483 639.78C646.896 639.547 647.369 639.43 647.903 639.43C648.423 639.43 648.883 639.543 649.283 639.77C649.683 639.997 649.989 640.31 650.203 640.71C650.423 641.103 650.533 641.55 650.533 642.05ZM649.593 641.86C649.593 641.513 649.516 641.217 649.363 640.97C649.209 640.717 648.999 640.527 648.733 640.4C648.473 640.267 648.183 640.2 647.863 640.2C647.403 640.2 647.009 640.347 646.683 640.64C646.363 640.933 646.179 641.34 646.133 641.86H649.593ZM652.644 640.41C652.804 640.097 653.031 639.853 653.324 639.68C653.624 639.507 653.987 639.42 654.414 639.42V640.36H654.174C653.154 640.36 652.644 640.913 652.644 642.02V645H651.734V639.52H652.644V640.41ZM662.054 639.42C662.481 639.42 662.861 639.51 663.194 639.69C663.528 639.863 663.791 640.127 663.984 640.48C664.178 640.833 664.274 641.263 664.274 641.77V645H663.374V641.9C663.374 641.353 663.238 640.937 662.964 640.65C662.698 640.357 662.334 640.21 661.874 640.21C661.401 640.21 661.024 640.363 660.744 640.67C660.464 640.97 660.324 641.407 660.324 641.98V645H659.424V641.9C659.424 641.353 659.288 640.937 659.014 640.65C658.748 640.357 658.384 640.21 657.924 640.21C657.451 640.21 657.074 640.363 656.794 640.67C656.514 640.97 656.374 641.407 656.374 641.98V645H655.464V639.52H656.374V640.31C656.554 640.023 656.794 639.803 657.094 639.65C657.401 639.497 657.738 639.42 658.104 639.42C658.564 639.42 658.971 639.523 659.324 639.73C659.678 639.937 659.941 640.24 660.114 640.64C660.268 640.253 660.521 639.953 660.874 639.74C661.228 639.527 661.621 639.42 662.054 639.42ZM667.707 645.09C667.287 645.09 666.91 645.02 666.577 644.88C666.244 644.733 665.98 644.533 665.787 644.28C665.594 644.02 665.487 643.723 665.467 643.39H666.407C666.434 643.663 666.56 643.887 666.787 644.06C667.02 644.233 667.324 644.32 667.697 644.32C668.044 644.32 668.317 644.243 668.517 644.09C668.717 643.937 668.817 643.743 668.817 643.51C668.817 643.27 668.71 643.093 668.497 642.98C668.284 642.86 667.954 642.743 667.507 642.63C667.1 642.523 666.767 642.417 666.507 642.31C666.254 642.197 666.034 642.033 665.847 641.82C665.667 641.6 665.577 641.313 665.577 640.96C665.577 640.68 665.66 640.423 665.827 640.19C665.994 639.957 666.23 639.773 666.537 639.64C666.844 639.5 667.194 639.43 667.587 639.43C668.194 639.43 668.684 639.583 669.057 639.89C669.43 640.197 669.63 640.617 669.657 641.15H668.747C668.727 640.863 668.61 640.633 668.397 640.46C668.19 640.287 667.91 640.2 667.557 640.2C667.23 640.2 666.97 640.27 666.777 640.41C666.584 640.55 666.487 640.733 666.487 640.96C666.487 641.14 666.544 641.29 666.657 641.41C666.777 641.523 666.924 641.617 667.097 641.69C667.277 641.757 667.524 641.833 667.837 641.92C668.23 642.027 668.55 642.133 668.797 642.24C669.044 642.34 669.254 642.493 669.427 642.7C669.607 642.907 669.7 643.177 669.707 643.51C669.707 643.81 669.624 644.08 669.457 644.32C669.29 644.56 669.054 644.75 668.747 644.89C668.447 645.023 668.1 645.09 667.707 645.09ZM676.048 645.09C675.534 645.09 675.068 644.973 674.648 644.74C674.234 644.507 673.908 644.177 673.668 643.75C673.434 643.317 673.318 642.817 673.318 642.25C673.318 641.69 673.438 641.197 673.678 640.77C673.924 640.337 674.258 640.007 674.678 639.78C675.098 639.547 675.568 639.43 676.088 639.43C676.608 639.43 677.078 639.547 677.498 639.78C677.918 640.007 678.248 640.333 678.488 640.76C678.734 641.187 678.858 641.683 678.858 642.25C678.858 642.817 678.731 643.317 678.478 643.75C678.231 644.177 677.894 644.507 677.468 644.74C677.041 644.973 676.568 645.09 676.048 645.09ZM676.048 644.29C676.374 644.29 676.681 644.213 676.968 644.06C677.254 643.907 677.484 643.677 677.658 643.37C677.838 643.063 677.928 642.69 677.928 642.25C677.928 641.81 677.841 641.437 677.668 641.13C677.494 640.823 677.268 640.597 676.988 640.45C676.708 640.297 676.404 640.22 676.078 640.22C675.744 640.22 675.438 640.297 675.158 640.45C674.884 640.597 674.664 640.823 674.498 641.13C674.331 641.437 674.248 641.81 674.248 642.25C674.248 642.697 674.328 643.073 674.488 643.38C674.654 643.687 674.874 643.917 675.148 644.07C675.421 644.217 675.721 644.29 676.048 644.29ZM682.284 640.27H681.134V645H680.224V640.27H679.514V639.52H680.224V639.13C680.224 638.517 680.381 638.07 680.694 637.79C681.014 637.503 681.524 637.36 682.224 637.36V638.12C681.824 638.12 681.541 638.2 681.374 638.36C681.214 638.513 681.134 638.77 681.134 639.13V639.52H682.284V640.27ZM688.221 645.07C687.761 645.07 687.348 644.99 686.981 644.83C686.621 644.663 686.338 644.437 686.131 644.15C685.925 643.857 685.818 643.52 685.811 643.14H686.781C686.815 643.467 686.948 643.743 687.181 643.97C687.421 644.19 687.768 644.3 688.221 644.3C688.655 644.3 688.995 644.193 689.241 643.98C689.495 643.76 689.621 643.48 689.621 643.14C689.621 642.873 689.548 642.657 689.401 642.49C689.255 642.323 689.071 642.197 688.851 642.11C688.631 642.023 688.335 641.93 687.961 641.83C687.501 641.71 687.131 641.59 686.851 641.47C686.578 641.35 686.341 641.163 686.141 640.91C685.948 640.65 685.851 640.303 685.851 639.87C685.851 639.49 685.948 639.153 686.141 638.86C686.335 638.567 686.605 638.34 686.951 638.18C687.305 638.02 687.708 637.94 688.161 637.94C688.815 637.94 689.348 638.103 689.761 638.43C690.181 638.757 690.418 639.19 690.471 639.73H689.471C689.438 639.463 689.298 639.23 689.051 639.03C688.805 638.823 688.478 638.72 688.071 638.72C687.691 638.72 687.381 638.82 687.141 639.02C686.901 639.213 686.781 639.487 686.781 639.84C686.781 640.093 686.851 640.3 686.991 640.46C687.138 640.62 687.315 640.743 687.521 640.83C687.735 640.91 688.031 641.003 688.411 641.11C688.871 641.237 689.241 641.363 689.521 641.49C689.801 641.61 690.041 641.8 690.241 642.06C690.441 642.313 690.541 642.66 690.541 643.1C690.541 643.44 690.451 643.76 690.271 644.06C690.091 644.36 689.825 644.603 689.471 644.79C689.118 644.977 688.701 645.07 688.221 645.07ZM696.88 642.05C696.88 642.223 696.87 642.407 696.85 642.6H692.47C692.504 643.14 692.687 643.563 693.02 643.87C693.36 644.17 693.77 644.32 694.25 644.32C694.644 644.32 694.97 644.23 695.23 644.05C695.497 643.863 695.684 643.617 695.79 643.31H696.77C696.624 643.837 696.33 644.267 695.89 644.6C695.45 644.927 694.904 645.09 694.25 645.09C693.73 645.09 693.264 644.973 692.85 644.74C692.444 644.507 692.124 644.177 691.89 643.75C691.657 643.317 691.54 642.817 691.54 642.25C691.54 641.683 691.654 641.187 691.88 640.76C692.107 640.333 692.424 640.007 692.83 639.78C693.244 639.547 693.717 639.43 694.25 639.43C694.77 639.43 695.23 639.543 695.63 639.77C696.03 639.997 696.337 640.31 696.55 640.71C696.77 641.103 696.88 641.55 696.88 642.05ZM695.94 641.86C695.94 641.513 695.864 641.217 695.71 640.97C695.557 640.717 695.347 640.527 695.08 640.4C694.82 640.267 694.53 640.2 694.21 640.2C693.75 640.2 693.357 640.347 693.03 640.64C692.71 640.933 692.527 641.34 692.48 641.86H695.94ZM698.992 640.41C699.152 640.097 699.378 639.853 699.672 639.68C699.972 639.507 700.335 639.42 700.762 639.42V640.36H700.522C699.502 640.36 698.992 640.913 698.992 642.02V645H698.082V639.52H698.992V640.41ZM703.852 644.16L705.552 639.52H706.522L704.372 645H703.312L701.162 639.52H702.142L703.852 644.16ZM707.887 638.63C707.714 638.63 707.567 638.57 707.447 638.45C707.327 638.33 707.267 638.183 707.267 638.01C707.267 637.837 707.327 637.69 707.447 637.57C707.567 637.45 707.714 637.39 707.887 637.39C708.054 637.39 708.194 637.45 708.307 637.57C708.427 637.69 708.487 637.837 708.487 638.01C708.487 638.183 708.427 638.33 708.307 638.45C708.194 638.57 708.054 638.63 707.887 638.63ZM708.327 639.52V645H707.417V639.52H708.327ZM709.538 642.25C709.538 641.683 709.652 641.19 709.878 640.77C710.105 640.343 710.418 640.013 710.818 639.78C711.225 639.547 711.688 639.43 712.208 639.43C712.882 639.43 713.435 639.593 713.868 639.92C714.308 640.247 714.598 640.7 714.738 641.28H713.758C713.665 640.947 713.482 640.683 713.208 640.49C712.942 640.297 712.608 640.2 712.208 640.2C711.688 640.2 711.268 640.38 710.948 640.74C710.628 641.093 710.468 641.597 710.468 642.25C710.468 642.91 710.628 643.42 710.948 643.78C711.268 644.14 711.688 644.32 712.208 644.32C712.608 644.32 712.942 644.227 713.208 644.04C713.475 643.853 713.658 643.587 713.758 643.24H714.738C714.592 643.8 714.298 644.25 713.858 644.59C713.418 644.923 712.868 645.09 712.208 645.09C711.688 645.09 711.225 644.973 710.818 644.74C710.418 644.507 710.105 644.177 709.878 643.75C709.652 643.323 709.538 642.823 709.538 642.25ZM720.953 642.05C720.953 642.223 720.943 642.407 720.923 642.6H716.543C716.576 643.14 716.759 643.563 717.093 643.87C717.433 644.17 717.843 644.32 718.323 644.32C718.716 644.32 719.043 644.23 719.303 644.05C719.569 643.863 719.756 643.617 719.863 643.31H720.843C720.696 643.837 720.403 644.267 719.963 644.6C719.523 644.927 718.976 645.09 718.323 645.09C717.803 645.09 717.336 644.973 716.923 644.74C716.516 644.507 716.196 644.177 715.963 643.75C715.729 643.317 715.613 642.817 715.613 642.25C715.613 641.683 715.726 641.187 715.953 640.76C716.179 640.333 716.496 640.007 716.903 639.78C717.316 639.547 717.789 639.43 718.323 639.43C718.843 639.43 719.303 639.543 719.703 639.77C720.103 639.997 720.409 640.31 720.623 640.71C720.843 641.103 720.953 641.55 720.953 642.05ZM720.013 641.86C720.013 641.513 719.936 641.217 719.783 640.97C719.629 640.717 719.419 640.527 719.153 640.4C718.893 640.267 718.603 640.2 718.283 640.2C717.823 640.2 717.429 640.347 717.103 640.64C716.783 640.933 716.599 641.34 716.553 641.86H720.013ZM730.17 645L729.26 644.08C728.92 644.433 728.556 644.697 728.17 644.87C727.783 645.037 727.346 645.12 726.86 645.12C726.38 645.12 725.953 645.033 725.58 644.86C725.213 644.687 724.926 644.44 724.72 644.12C724.52 643.8 724.42 643.427 724.42 643C724.42 642.513 724.556 642.087 724.83 641.72C725.11 641.347 725.52 641.053 726.06 640.84C725.846 640.587 725.693 640.353 725.6 640.14C725.506 639.927 725.46 639.693 725.46 639.44C725.46 639.147 725.533 638.883 725.68 638.65C725.833 638.41 726.05 638.223 726.33 638.09C726.61 637.957 726.933 637.89 727.3 637.89C727.66 637.89 727.973 637.96 728.24 638.1C728.506 638.24 728.706 638.437 728.84 638.69C728.973 638.937 729.033 639.213 729.02 639.52H728.11C728.116 639.247 728.04 639.033 727.88 638.88C727.72 638.72 727.513 638.64 727.26 638.64C726.993 638.64 726.776 638.717 726.61 638.87C726.45 639.017 726.37 639.207 726.37 639.44C726.37 639.64 726.423 639.833 726.53 640.02C726.643 640.207 726.83 640.437 727.09 640.71L729.17 642.8L729.35 642.52L730.03 641.38H731.01L730.19 642.8C730.076 643 729.943 643.21 729.79 643.43L731.36 645H730.17ZM726.86 644.34C727.22 644.34 727.543 644.27 727.83 644.13C728.123 643.99 728.4 643.773 728.66 643.48L726.61 641.42C725.756 641.747 725.33 642.263 725.33 642.97C725.33 643.363 725.47 643.69 725.75 643.95C726.036 644.21 726.406 644.34 726.86 644.34ZM739.538 640.07C739.538 640.65 739.338 641.133 738.938 641.52C738.545 641.9 737.942 642.09 737.128 642.09H735.788V645H734.878V638.03H737.128C737.915 638.03 738.512 638.22 738.918 638.6C739.332 638.98 739.538 639.47 739.538 640.07ZM737.128 641.34C737.635 641.34 738.008 641.23 738.248 641.01C738.488 640.79 738.608 640.477 738.608 640.07C738.608 639.21 738.115 638.78 737.128 638.78H735.788V641.34H737.128ZM741.579 640.41C741.739 640.097 741.966 639.853 742.259 639.68C742.559 639.507 742.923 639.42 743.349 639.42V640.36H743.109C742.089 640.36 741.579 640.913 741.579 642.02V645H740.669V639.52H741.579V640.41ZM744.87 638.63C744.697 638.63 744.55 638.57 744.43 638.45C744.31 638.33 744.25 638.183 744.25 638.01C744.25 637.837 744.31 637.69 744.43 637.57C744.55 637.45 744.697 637.39 744.87 637.39C745.037 637.39 745.177 637.45 745.29 637.57C745.41 637.69 745.47 637.837 745.47 638.01C745.47 638.183 745.41 638.33 745.29 638.45C745.177 638.57 745.037 638.63 744.87 638.63ZM745.31 639.52V645H744.4V639.52H745.31ZM748.901 644.16L750.601 639.52H751.571L749.421 645H748.361L746.211 639.52H747.191L748.901 644.16ZM752.126 642.24C752.126 641.68 752.24 641.19 752.466 640.77C752.693 640.343 753.003 640.013 753.396 639.78C753.796 639.547 754.24 639.43 754.726 639.43C755.206 639.43 755.623 639.533 755.976 639.74C756.33 639.947 756.593 640.207 756.766 640.52V639.52H757.686V645H756.766V643.98C756.586 644.3 756.316 644.567 755.956 644.78C755.603 644.987 755.19 645.09 754.716 645.09C754.23 645.09 753.79 644.97 753.396 644.73C753.003 644.49 752.693 644.153 752.466 643.72C752.24 643.287 752.126 642.793 752.126 642.24ZM756.766 642.25C756.766 641.837 756.683 641.477 756.516 641.17C756.35 640.863 756.123 640.63 755.836 640.47C755.556 640.303 755.246 640.22 754.906 640.22C754.566 640.22 754.256 640.3 753.976 640.46C753.696 640.62 753.473 640.853 753.306 641.16C753.14 641.467 753.056 641.827 753.056 642.24C753.056 642.66 753.14 643.027 753.306 643.34C753.473 643.647 753.696 643.883 753.976 644.05C754.256 644.21 754.566 644.29 754.906 644.29C755.246 644.29 755.556 644.21 755.836 644.05C756.123 643.883 756.35 643.647 756.516 643.34C756.683 643.027 756.766 642.663 756.766 642.25ZM758.884 642.25C758.884 641.683 758.997 641.19 759.224 640.77C759.451 640.343 759.764 640.013 760.164 639.78C760.571 639.547 761.034 639.43 761.554 639.43C762.227 639.43 762.781 639.593 763.214 639.92C763.654 640.247 763.944 640.7 764.084 641.28H763.104C763.011 640.947 762.827 640.683 762.554 640.49C762.287 640.297 761.954 640.2 761.554 640.2C761.034 640.2 760.614 640.38 760.294 640.74C759.974 641.093 759.814 641.597 759.814 642.25C759.814 642.91 759.974 643.42 760.294 643.78C760.614 644.14 761.034 644.32 761.554 644.32C761.954 644.32 762.287 644.227 762.554 644.04C762.821 643.853 763.004 643.587 763.104 643.24H764.084C763.937 643.8 763.644 644.25 763.204 644.59C762.764 644.923 762.214 645.09 761.554 645.09C761.034 645.09 760.571 644.973 760.164 644.74C759.764 644.507 759.451 644.177 759.224 643.75C758.997 643.323 758.884 642.823 758.884 642.25ZM770.018 639.52L766.718 647.58H765.778L766.858 644.94L764.648 639.52H765.658L767.378 643.96L769.078 639.52H770.018ZM778.259 640.07C778.259 640.65 778.059 641.133 777.659 641.52C777.266 641.9 776.662 642.09 775.849 642.09H774.509V645H773.599V638.03H775.849C776.636 638.03 777.232 638.22 777.639 638.6C778.052 638.98 778.259 639.47 778.259 640.07ZM775.849 641.34C776.356 641.34 776.729 641.23 776.969 641.01C777.209 640.79 777.329 640.477 777.329 640.07C777.329 639.21 776.836 638.78 775.849 638.78H774.509V641.34H775.849ZM781.78 645.09C781.267 645.09 780.8 644.973 780.38 644.74C779.967 644.507 779.64 644.177 779.4 643.75C779.167 643.317 779.05 642.817 779.05 642.25C779.05 641.69 779.17 641.197 779.41 640.77C779.657 640.337 779.99 640.007 780.41 639.78C780.83 639.547 781.3 639.43 781.82 639.43C782.34 639.43 782.81 639.547 783.23 639.78C783.65 640.007 783.98 640.333 784.22 640.76C784.467 641.187 784.59 641.683 784.59 642.25C784.59 642.817 784.463 643.317 784.21 643.75C783.963 644.177 783.627 644.507 783.2 644.74C782.773 644.973 782.3 645.09 781.78 645.09ZM781.78 644.29C782.107 644.29 782.413 644.213 782.7 644.06C782.987 643.907 783.217 643.677 783.39 643.37C783.57 643.063 783.66 642.69 783.66 642.25C783.66 641.81 783.573 641.437 783.4 641.13C783.227 640.823 783 640.597 782.72 640.45C782.44 640.297 782.137 640.22 781.81 640.22C781.477 640.22 781.17 640.297 780.89 640.45C780.617 640.597 780.397 640.823 780.23 641.13C780.063 641.437 779.98 641.81 779.98 642.25C779.98 642.697 780.06 643.073 780.22 643.38C780.387 643.687 780.607 643.917 780.88 644.07C781.153 644.217 781.453 644.29 781.78 644.29ZM786.697 637.6V645H785.787V637.6H786.697ZM788.718 638.63C788.544 638.63 788.398 638.57 788.278 638.45C788.158 638.33 788.098 638.183 788.098 638.01C788.098 637.837 788.158 637.69 788.278 637.57C788.398 637.45 788.544 637.39 788.718 637.39C788.884 637.39 789.024 637.45 789.138 637.57C789.258 637.69 789.318 637.837 789.318 638.01C789.318 638.183 789.258 638.33 789.138 638.45C789.024 638.57 788.884 638.63 788.718 638.63ZM789.158 639.52V645H788.248V639.52H789.158ZM790.368 642.25C790.368 641.683 790.482 641.19 790.708 640.77C790.935 640.343 791.248 640.013 791.648 639.78C792.055 639.547 792.518 639.43 793.038 639.43C793.712 639.43 794.265 639.593 794.698 639.92C795.138 640.247 795.428 640.7 795.568 641.28H794.588C794.495 640.947 794.312 640.683 794.038 640.49C793.772 640.297 793.438 640.2 793.038 640.2C792.518 640.2 792.098 640.38 791.778 640.74C791.458 641.093 791.298 641.597 791.298 642.25C791.298 642.91 791.458 643.42 791.778 643.78C792.098 644.14 792.518 644.32 793.038 644.32C793.438 644.32 793.772 644.227 794.038 644.04C794.305 643.853 794.488 643.587 794.588 643.24H795.568C795.422 643.8 795.128 644.25 794.688 644.59C794.248 644.923 793.698 645.09 793.038 645.09C792.518 645.09 792.055 644.973 791.648 644.74C791.248 644.507 790.935 644.177 790.708 643.75C790.482 643.323 790.368 642.823 790.368 642.25ZM801.503 639.52L798.203 647.58H797.263L798.343 644.94L796.133 639.52H797.143L798.863 643.96L800.563 639.52H801.503Z" fill="#BBBBBB"/>
<path d="M639.353 646H721.383V646.5H639.353V646ZM734.108 646H801.643V646.5H734.108V646Z" fill="#BBBBBB"/>
<path d="M545.256 212.2H548.376V229H545.256V212.2ZM559.832 212.2C561.288 212.2 562.552 212.44 563.624 212.92C564.712 213.4 565.544 214.088 566.12 214.984C566.696 215.88 566.984 216.944 566.984 218.176C566.984 219.392 566.696 220.456 566.12 221.368C565.544 222.264 564.712 222.952 563.624 223.432C562.552 223.912 561.288 224.152 559.832 224.152H556.04V229H552.92V212.2H559.832ZM559.688 221.512C561.048 221.512 562.08 221.224 562.784 220.648C563.488 220.072 563.84 219.248 563.84 218.176C563.84 217.104 563.488 216.28 562.784 215.704C562.08 215.128 561.048 214.84 559.688 214.84H556.04V221.512H559.688ZM581.813 222.664C581.813 222.872 581.797 223.168 581.765 223.552H571.709C571.885 224.496 572.341 225.248 573.077 225.808C573.829 226.352 574.757 226.624 575.861 226.624C577.269 226.624 578.429 226.16 579.341 225.232L580.949 227.08C580.373 227.768 579.645 228.288 578.765 228.64C577.885 228.992 576.893 229.168 575.789 229.168C574.381 229.168 573.141 228.888 572.069 228.328C570.997 227.768 570.165 226.992 569.573 226C568.997 224.992 568.709 223.856 568.709 222.592C568.709 221.344 568.989 220.224 569.549 219.232C570.125 218.224 570.917 217.44 571.925 216.88C572.933 216.32 574.069 216.04 575.333 216.04C576.581 216.04 577.693 216.32 578.669 216.88C579.661 217.424 580.429 218.2 580.973 219.208C581.533 220.2 581.813 221.352 581.813 222.664ZM575.333 218.44C574.373 218.44 573.557 218.728 572.885 219.304C572.229 219.864 571.829 220.616 571.685 221.56H578.957C578.829 220.632 578.437 219.88 577.781 219.304C577.125 218.728 576.309 218.44 575.333 218.44ZM591.967 216.04C593.583 216.04 594.879 216.512 595.855 217.456C596.831 218.4 597.319 219.8 597.319 221.656V229H594.319V222.04C594.319 220.92 594.055 220.08 593.527 219.52C592.999 218.944 592.247 218.656 591.271 218.656C590.167 218.656 589.295 218.992 588.655 219.664C588.015 220.32 587.695 221.272 587.695 222.52V229H584.695V216.184H587.551V217.84C588.047 217.248 588.671 216.8 589.423 216.496C590.175 216.192 591.023 216.04 591.967 216.04ZM613.961 216.184V227.056C613.961 231.568 611.657 233.824 607.049 233.824C605.817 233.824 604.649 233.664 603.545 233.344C602.441 233.04 601.529 232.592 600.809 232L602.153 229.744C602.713 230.208 603.417 230.576 604.265 230.848C605.129 231.136 606.001 231.28 606.881 231.28C608.289 231.28 609.321 230.96 609.977 230.32C610.633 229.68 610.961 228.704 610.961 227.392V226.72C610.449 227.28 609.825 227.704 609.089 227.992C608.353 228.28 607.545 228.424 606.665 228.424C605.449 228.424 604.345 228.168 603.353 227.656C602.377 227.128 601.601 226.392 601.025 225.448C600.465 224.504 600.185 223.424 600.185 222.208C600.185 220.992 600.465 219.92 601.025 218.992C601.601 218.048 602.377 217.32 603.353 216.808C604.345 216.296 605.449 216.04 606.665 216.04C607.593 216.04 608.433 216.192 609.185 216.496C609.953 216.8 610.593 217.264 611.105 217.888V216.184H613.961ZM607.121 225.88C608.257 225.88 609.185 225.544 609.905 224.872C610.641 224.184 611.009 223.296 611.009 222.208C611.009 221.136 610.641 220.264 609.905 219.592C609.185 218.92 608.257 218.584 607.121 218.584C605.969 218.584 605.025 218.92 604.289 219.592C603.569 220.264 603.209 221.136 603.209 222.208C603.209 223.296 603.569 224.184 604.289 224.872C605.025 225.544 605.969 225.88 607.121 225.88ZM617.906 216.184H620.906V229H617.906V216.184ZM619.418 214.072C618.874 214.072 618.418 213.904 618.05 213.568C617.682 213.216 617.498 212.784 617.498 212.272C617.498 211.76 617.682 211.336 618.05 211C618.418 210.648 618.874 210.472 619.418 210.472C619.962 210.472 620.418 210.64 620.786 210.976C621.154 211.296 621.338 211.704 621.338 212.2C621.338 212.728 621.154 213.176 620.786 213.544C620.434 213.896 619.978 214.072 619.418 214.072ZM632.115 216.04C633.731 216.04 635.027 216.512 636.003 217.456C636.979 218.4 637.467 219.8 637.467 221.656V229H634.467V222.04C634.467 220.92 634.203 220.08 633.675 219.52C633.147 218.944 632.395 218.656 631.419 218.656C630.315 218.656 629.443 218.992 628.803 219.664C628.163 220.32 627.843 221.272 627.843 222.52V229H624.843V216.184H627.699V217.84C628.195 217.248 628.819 216.8 629.571 216.496C630.323 216.192 631.171 216.04 632.115 216.04ZM653.438 222.664C653.438 222.872 653.422 223.168 653.39 223.552H643.334C643.51 224.496 643.966 225.248 644.702 225.808C645.454 226.352 646.382 226.624 647.486 226.624C648.894 226.624 650.054 226.16 650.966 225.232L652.574 227.08C651.998 227.768 651.27 228.288 650.39 228.64C649.51 228.992 648.518 229.168 647.414 229.168C646.006 229.168 644.766 228.888 643.694 228.328C642.622 227.768 641.79 226.992 641.198 226C640.622 224.992 640.334 223.856 640.334 222.592C640.334 221.344 640.614 220.224 641.174 219.232C641.75 218.224 642.542 217.44 643.55 216.88C644.558 216.32 645.694 216.04 646.958 216.04C648.206 216.04 649.318 216.32 650.294 216.88C651.286 217.424 652.054 218.2 652.598 219.208C653.158 220.2 653.438 221.352 653.438 222.664ZM646.958 218.44C645.998 218.44 645.182 218.728 644.51 219.304C643.854 219.864 643.454 220.616 643.31 221.56H650.582C650.454 220.632 650.062 219.88 649.406 219.304C648.75 218.728 647.934 218.44 646.958 218.44ZM657.28 229.168C656.736 229.168 656.272 228.984 655.888 228.616C655.504 228.232 655.312 227.752 655.312 227.176C655.312 226.584 655.496 226.104 655.864 225.736C656.248 225.368 656.72 225.184 657.28 225.184C657.84 225.184 658.304 225.368 658.672 225.736C659.056 226.104 659.248 226.584 659.248 227.176C659.248 227.752 659.056 228.232 658.672 228.616C658.288 228.984 657.824 229.168 657.28 229.168ZM674.497 211.192V229H671.617V227.344C671.121 227.952 670.505 228.408 669.769 228.712C669.049 229.016 668.249 229.168 667.369 229.168C666.137 229.168 665.025 228.896 664.033 228.352C663.057 227.808 662.289 227.04 661.729 226.048C661.169 225.04 660.889 223.888 660.889 222.592C660.889 221.296 661.169 220.152 661.729 219.16C662.289 218.168 663.057 217.4 664.033 216.856C665.025 216.312 666.137 216.04 667.369 216.04C668.217 216.04 668.993 216.184 669.697 216.472C670.401 216.76 671.001 217.192 671.497 217.768V211.192H674.497ZM667.729 226.6C668.449 226.6 669.097 226.44 669.673 226.12C670.249 225.784 670.705 225.312 671.041 224.704C671.377 224.096 671.545 223.392 671.545 222.592C671.545 221.792 671.377 221.088 671.041 220.48C670.705 219.872 670.249 219.408 669.673 219.088C669.097 218.752 668.449 218.584 667.729 218.584C667.009 218.584 666.361 218.752 665.785 219.088C665.209 219.408 664.753 219.872 664.417 220.48C664.081 221.088 663.913 221.792 663.913 222.592C663.913 223.392 664.081 224.096 664.417 224.704C664.753 225.312 665.209 225.784 665.785 226.12C666.361 226.44 667.009 226.6 667.729 226.6ZM690.469 222.664C690.469 222.872 690.453 223.168 690.421 223.552H680.365C680.541 224.496 680.997 225.248 681.733 225.808C682.485 226.352 683.413 226.624 684.517 226.624C685.925 226.624 687.085 226.16 687.997 225.232L689.605 227.08C689.029 227.768 688.301 228.288 687.421 228.64C686.541 228.992 685.549 229.168 684.445 229.168C683.037 229.168 681.797 228.888 680.725 228.328C679.653 227.768 678.821 226.992 678.229 226C677.653 224.992 677.365 223.856 677.365 222.592C677.365 221.344 677.645 220.224 678.205 219.232C678.781 218.224 679.573 217.44 680.581 216.88C681.589 216.32 682.725 216.04 683.989 216.04C685.237 216.04 686.349 216.32 687.325 216.88C688.317 217.424 689.085 218.2 689.629 219.208C690.189 220.2 690.469 221.352 690.469 222.664ZM683.989 218.44C683.029 218.44 682.213 218.728 681.541 219.304C680.885 219.864 680.485 220.616 680.341 221.56H687.613C687.485 220.632 687.093 219.88 686.437 219.304C685.781 218.728 684.965 218.44 683.989 218.44ZM705.116 216.184L699.62 229H696.524L691.028 216.184H694.148L698.132 225.688L702.236 216.184H705.116Z" fill="black"/>
<line x1="579.332" y1="360.374" x2="508.332" y2="423.374" stroke="#DDDDDD"/>
<line x1="709.571" y1="392.257" x2="661.571" y2="312.257" stroke="#DDDDDD"/>
<line x1="709.699" y1="391.601" x2="786.699" y2="333.601" stroke="#DDDDDD"/>
<line x1="879.61" y1="450.313" x2="786.61" y2="334.313" stroke="#DDDDDD"/>
<line x1="879.631" y1="449.663" x2="931.631" y2="392.663" stroke="#DDDDDD"/>
<line x1="710.313" y1="392.39" x2="624.313" y2="461.39" stroke="#DDDDDD"/>
<line x1="579.457" y1="359.797" x2="624.457" y2="460.797" stroke="#DDDDDD"/>
<circle cx="579" cy="360" r="11" fill="#FFE68E"/>
<circle cx="624" cy="461" r="11" fill="#A0B2D0"/>
<circle cx="710" cy="392" r="11" fill="#8DE0B8"/>
<circle cx="880" cy="450" r="11" fill="#F5C293"/>
<circle cx="787" cy="334" r="11" fill="#F79797"/>
<circle cx="662" cy="312" r="11" fill="#F8733A"/>
<defs>
<filter id="filter0_d" x="488" y="161" width="464" height="557" filterUnits="userSpaceOnUse" color-interpolation-filters="sRGB">
<feFlood flood-opacity="0" result="BackgroundImageFix"/>
<feColorMatrix in="SourceAlpha" type="matrix" values="0 0 0 0 0 0 0 0 0 0 0 0 0 0 0 0 0 0 127 0"/>
<feOffset dy="8"/>
<feGaussianBlur stdDeviation="10"/>
<feColorMatrix type="matrix" values="0 0 0 0 0 0 0 0 0 0 0 0 0 0 0 0 0 0 0.1 0"/>
<feBlend mode="normal" in2="BackgroundImageFix" result="effect1_dropShadow"/>
<feBlend mode="normal" in="SourceGraphic" in2="effect1_dropShadow" result="shape"/>
</filter>
<filter id="filter1_d" x="602" y="530" width="236" height="60" filterUnits="userSpaceOnUse" color-interpolation-filters="sRGB">
<feFlood flood-opacity="0" result="BackgroundImageFix"/>
<feColorMatrix in="SourceAlpha" type="matrix" values="0 0 0 0 0 0 0 0 0 0 0 0 0 0 0 0 0 0 127 0"/>
<feOffset dy="2"/>
<feGaussianBlur stdDeviation="2"/>
<feColorMatrix type="matrix" values="0 0 0 0 0 0 0 0 0 0 0 0 0 0 0 0 0 0 0.16 0"/>
<feBlend mode="normal" in2="BackgroundImageFix" result="effect1_dropShadow"/>
<feBlend mode="normal" in="SourceGraphic" in2="effect1_dropShadow" result="shape"/>
</filter>
</defs>
</svg>
